solid OpenSCAD_Model
  facet normal 1 -0 0
    outer loop
      vertex 50 -73 5
      vertex 50 73 -5
      vertex 50 73 5
    endloop
  endfacet
  facet normal 1 0 0
    outer loop
      vertex 50 73 -5
      vertex 50 -73 5
      vertex 50 -73 -5
    endloop
  endfacet
  facet normal 0 1 -0
    outer loop
      vertex 48 75 -5
      vertex -48 75 5
      vertex 48 75 5
    endloop
  endfacet
  facet normal 0 1 0
    outer loop
      vertex -48 75 5
      vertex 48 75 -5
      vertex -48 75 -5
    endloop
  endfacet
  facet normal 0 -1 0
    outer loop
      vertex -48 -75 -5
      vertex 48 -75 5
      vertex -48 -75 5
    endloop
  endfacet
  facet normal 0 -1 -0
    outer loop
      vertex 48 -75 5
      vertex -48 -75 -5
      vertex 48 -75 -5
    endloop
  endfacet
  facet normal 0.923875 -0.382694 0
    outer loop
      vertex 49.4142 -74.4142 5
      vertex 50 -73 -5
      vertex 50 -73 5
    endloop
  endfacet
  facet normal 0.923875 -0.382694 0
    outer loop
      vertex 50 -73 -5
      vertex 49.4142 -74.4142 5
      vertex 49.4142 -74.4142 -5
    endloop
  endfacet
  facet normal 0.382694 -0.923875 0
    outer loop
      vertex 48 -75 -5
      vertex 49.4142 -74.4142 5
      vertex 48 -75 5
    endloop
  endfacet
  facet normal 0.382694 -0.923875 0
    outer loop
      vertex 49.4142 -74.4142 5
      vertex 48 -75 -5
      vertex 49.4142 -74.4142 -5
    endloop
  endfacet
  facet normal -0.923875 0.382694 0
    outer loop
      vertex -50 73 -5
      vertex -49.4142 74.4142 5
      vertex -49.4142 74.4142 -5
    endloop
  endfacet
  facet normal -0.923875 0.382694 0
    outer loop
      vertex -49.4142 74.4142 5
      vertex -50 73 -5
      vertex -50 73 5
    endloop
  endfacet
  facet normal -0.382694 -0.923875 0
    outer loop
      vertex -49.4142 -74.4142 -5
      vertex -48 -75 5
      vertex -49.4142 -74.4142 5
    endloop
  endfacet
  facet normal -0.382694 -0.923875 -0
    outer loop
      vertex -48 -75 5
      vertex -49.4142 -74.4142 -5
      vertex -48 -75 -5
    endloop
  endfacet
  facet normal 0.923875 0.382694 0
    outer loop
      vertex 50 73 5
      vertex 49.4142 74.4142 -5
      vertex 49.4142 74.4142 5
    endloop
  endfacet
  facet normal 0.923875 0.382694 0
    outer loop
      vertex 49.4142 74.4142 -5
      vertex 50 73 5
      vertex 50 73 -5
    endloop
  endfacet
  facet normal -0.923875 -0.382694 0
    outer loop
      vertex -49.4142 -74.4142 -5
      vertex -50 -73 5
      vertex -50 -73 -5
    endloop
  endfacet
  facet normal -0.923875 -0.382694 0
    outer loop
      vertex -50 -73 5
      vertex -49.4142 -74.4142 -5
      vertex -49.4142 -74.4142 5
    endloop
  endfacet
  facet normal 0 0 1
    outer loop
      vertex 48 75 5
      vertex 50 73 5
      vertex 49.4142 74.4142 5
    endloop
  endfacet
  facet normal 0 0 1
    outer loop
      vertex 50 73 5
      vertex 35 59.5 5
      vertex 50 -73 5
    endloop
  endfacet
  facet normal 0 0 1
    outer loop
      vertex 50 73 5
      vertex 48 75 5
      vertex 34.8536 59.8536 5
    endloop
  endfacet
  facet normal -0 0 1
    outer loop
      vertex 35 -59.5 5
      vertex 50 -73 5
      vertex 35 59.5 5
    endloop
  endfacet
  facet normal -0 0 1
    outer loop
      vertex 34.8536 -59.8536 5
      vertex 50 -73 5
      vertex 35 -59.5 5
    endloop
  endfacet
  facet normal 0 0 1
    outer loop
      vertex 50 73 5
      vertex 34.8536 59.8536 5
      vertex 35 59.5 5
    endloop
  endfacet
  facet normal 0 0 1
    outer loop
      vertex 48 75 5
      vertex 34.5 60 5
      vertex 34.8536 59.8536 5
    endloop
  endfacet
  facet normal 0 0 1
    outer loop
      vertex 48 75 5
      vertex -34.5 60 5
      vertex 34.5 60 5
    endloop
  endfacet
  facet normal 0 0 1
    outer loop
      vertex -34.8536 59.8536 5
      vertex -50 73 5
      vertex -35 59.5 5
    endloop
  endfacet
  facet normal -0 0 1
    outer loop
      vertex -50 73 5
      vertex -34.8536 59.8536 5
      vertex -48 75 5
    endloop
  endfacet
  facet normal 0 0 1
    outer loop
      vertex -34.5 60 5
      vertex -48 75 5
      vertex -34.8536 59.8536 5
    endloop
  endfacet
  facet normal -0 0 1
    outer loop
      vertex -48 75 5
      vertex -34.5 60 5
      vertex 48 75 5
    endloop
  endfacet
  facet normal 0 -0 1
    outer loop
      vertex 48 -75 5
      vertex 50 -73 5
      vertex 34.8536 -59.8536 5
    endloop
  endfacet
  facet normal 0 0 1
    outer loop
      vertex 50 -73 5
      vertex 48 -75 5
      vertex 49.4142 -74.4142 5
    endloop
  endfacet
  facet normal -0 0 1
    outer loop
      vertex 34.5 -60 5
      vertex 48 -75 5
      vertex 34.8536 -59.8536 5
    endloop
  endfacet
  facet normal -0 0 1
    outer loop
      vertex -34.5 -60 5
      vertex 48 -75 5
      vertex 34.5 -60 5
    endloop
  endfacet
  facet normal 0 0 1
    outer loop
      vertex -34.5 -60 5
      vertex -48 -75 5
      vertex 48 -75 5
    endloop
  endfacet
  facet normal 0 0 1
    outer loop
      vertex -34.8536 -59.8536 5
      vertex -48 -75 5
      vertex -34.5 -60 5
    endloop
  endfacet
  facet normal 0 0 1
    outer loop
      vertex -50 -73 5
      vertex -34.8536 -59.8536 5
      vertex -35 -59.5 5
    endloop
  endfacet
  facet normal 0 0 1
    outer loop
      vertex -35 59.5 5
      vertex -50 73 5
      vertex -35 -59.5 5
    endloop
  endfacet
  facet normal 0 0 1
    outer loop
      vertex -50 73 5
      vertex -48 75 5
      vertex -49.4142 74.4142 5
    endloop
  endfacet
  facet normal 0 0 1
    outer loop
      vertex -50 -73 5
      vertex -35 -59.5 5
      vertex -50 73 5
    endloop
  endfacet
  facet normal 0 0 1
    outer loop
      vertex -34.8536 -59.8536 5
      vertex -50 -73 5
      vertex -48 -75 5
    endloop
  endfacet
  facet normal 0 0 1
    outer loop
      vertex -48 -75 5
      vertex -50 -73 5
      vertex -49.4142 -74.4142 5
    endloop
  endfacet
  facet normal -0.382694 0.923875 0
    outer loop
      vertex -48 75 -5
      vertex -49.4142 74.4142 5
      vertex -48 75 5
    endloop
  endfacet
  facet normal -0.382694 0.923875 0
    outer loop
      vertex -49.4142 74.4142 5
      vertex -48 75 -5
      vertex -49.4142 74.4142 -5
    endloop
  endfacet
  facet normal 0 0 -1
    outer loop
      vertex 48 -75 -5
      vertex 50 -73 -5
      vertex 49.4142 -74.4142 -5
    endloop
  endfacet
  facet normal 0 0 -1
    outer loop
      vertex 50 -73 -5
      vertex 35 -59.5 -5
      vertex 50 73 -5
    endloop
  endfacet
  facet normal -0 0 -1
    outer loop
      vertex 50 -73 -5
      vertex 48 -75 -5
      vertex 34.8536 -59.8536 -5
    endloop
  endfacet
  facet normal 0 0 -1
    outer loop
      vertex 35 59.5 -5
      vertex 50 73 -5
      vertex 35 -59.5 -5
    endloop
  endfacet
  facet normal 0 0 -1
    outer loop
      vertex 34.8536 59.8536 -5
      vertex 50 73 -5
      vertex 35 59.5 -5
    endloop
  endfacet
  facet normal 0 0 -1
    outer loop
      vertex 50 -73 -5
      vertex 34.8536 -59.8536 -5
      vertex 35 -59.5 -5
    endloop
  endfacet
  facet normal 0 0 -1
    outer loop
      vertex 48 -75 -5
      vertex 34.5 -60 -5
      vertex 34.8536 -59.8536 -5
    endloop
  endfacet
  facet normal 0 0 -1
    outer loop
      vertex 48 -75 -5
      vertex -34.5 -60 -5
      vertex 34.5 -60 -5
    endloop
  endfacet
  facet normal -0 0 -1
    outer loop
      vertex -34.8536 -59.8536 -5
      vertex -50 -73 -5
      vertex -35 -59.5 -5
    endloop
  endfacet
  facet normal 0 0 -1
    outer loop
      vertex -50 -73 -5
      vertex -34.8536 -59.8536 -5
      vertex -48 -75 -5
    endloop
  endfacet
  facet normal -0 0 -1
    outer loop
      vertex -34.5 -60 -5
      vertex -48 -75 -5
      vertex -34.8536 -59.8536 -5
    endloop
  endfacet
  facet normal 0 0 -1
    outer loop
      vertex -48 -75 -5
      vertex -34.5 -60 -5
      vertex 48 -75 -5
    endloop
  endfacet
  facet normal 0 -0 -1
    outer loop
      vertex 48 75 -5
      vertex 50 73 -5
      vertex 34.8536 59.8536 -5
    endloop
  endfacet
  facet normal 0 0 -1
    outer loop
      vertex 50 73 -5
      vertex 48 75 -5
      vertex 49.4142 74.4142 -5
    endloop
  endfacet
  facet normal 0 0 -1
    outer loop
      vertex 34.5 60 -5
      vertex 48 75 -5
      vertex 34.8536 59.8536 -5
    endloop
  endfacet
  facet normal 0 0 -1
    outer loop
      vertex -34.5 60 -5
      vertex 48 75 -5
      vertex 34.5 60 -5
    endloop
  endfacet
  facet normal 0 0 -1
    outer loop
      vertex -34.5 60 -5
      vertex -48 75 -5
      vertex 48 75 -5
    endloop
  endfacet
  facet normal 0 0 -1
    outer loop
      vertex -34.8536 59.8536 -5
      vertex -48 75 -5
      vertex -34.5 60 -5
    endloop
  endfacet
  facet normal 0 0 -1
    outer loop
      vertex -50 73 -5
      vertex -34.8536 59.8536 -5
      vertex -35 59.5 -5
    endloop
  endfacet
  facet normal -0 0 -1
    outer loop
      vertex -35 -59.5 -5
      vertex -50 -73 -5
      vertex -35 59.5 -5
    endloop
  endfacet
  facet normal 0 0 -1
    outer loop
      vertex -50 -73 -5
      vertex -48 -75 -5
      vertex -49.4142 -74.4142 -5
    endloop
  endfacet
  facet normal 0 0 -1
    outer loop
      vertex -50 73 -5
      vertex -35 59.5 -5
      vertex -50 -73 -5
    endloop
  endfacet
  facet normal 0 0 -1
    outer loop
      vertex -34.8536 59.8536 -5
      vertex -50 73 -5
      vertex -48 75 -5
    endloop
  endfacet
  facet normal 0 0 -1
    outer loop
      vertex -48 75 -5
      vertex -50 73 -5
      vertex -49.4142 74.4142 -5
    endloop
  endfacet
  facet normal 0.382694 0.923875 -0
    outer loop
      vertex 49.4142 74.4142 -5
      vertex 48 75 5
      vertex 49.4142 74.4142 5
    endloop
  endfacet
  facet normal 0.382694 0.923875 0
    outer loop
      vertex 48 75 5
      vertex 49.4142 74.4142 -5
      vertex 48 75 -5
    endloop
  endfacet
  facet normal -1 0 0
    outer loop
      vertex -50 -73 -5
      vertex -50 73 5
      vertex -50 73 -5
    endloop
  endfacet
  facet normal -1 -0 0
    outer loop
      vertex -50 73 5
      vertex -50 -73 -5
      vertex -50 -73 5
    endloop
  endfacet
  facet normal 0 -1 0
    outer loop
      vertex -34.5 60 -5
      vertex 34.5 60 5
      vertex -34.5 60 5
    endloop
  endfacet
  facet normal 0 -1 -0
    outer loop
      vertex 34.5 60 5
      vertex -34.5 60 -5
      vertex 34.5 60 -5
    endloop
  endfacet
  facet normal -0.382536 -0.92394 0
    outer loop
      vertex 34.5 60 -5
      vertex 34.8536 59.8536 5
      vertex 34.5 60 5
    endloop
  endfacet
  facet normal -0.382536 -0.92394 -0
    outer loop
      vertex 34.8536 59.8536 5
      vertex 34.5 60 -5
      vertex 34.8536 59.8536 -5
    endloop
  endfacet
  facet normal 0.382536 0.92394 -0
    outer loop
      vertex -34.5 -60 -5
      vertex -34.8536 -59.8536 5
      vertex -34.5 -60 5
    endloop
  endfacet
  facet normal 0.382536 0.92394 0
    outer loop
      vertex -34.8536 -59.8536 5
      vertex -34.5 -60 -5
      vertex -34.8536 -59.8536 -5
    endloop
  endfacet
  facet normal -0.92394 -0.382536 0
    outer loop
      vertex 35 59.5 -5
      vertex 34.8536 59.8536 5
      vertex 34.8536 59.8536 -5
    endloop
  endfacet
  facet normal -0.92394 -0.382536 0
    outer loop
      vertex 34.8536 59.8536 5
      vertex 35 59.5 -5
      vertex 35 59.5 5
    endloop
  endfacet
  facet normal 1 -0 0
    outer loop
      vertex -35 -59.5 5
      vertex -35 59.5 -5
      vertex -35 59.5 5
    endloop
  endfacet
  facet normal 1 0 0
    outer loop
      vertex -35 59.5 -5
      vertex -35 -59.5 5
      vertex -35 -59.5 -5
    endloop
  endfacet
  facet normal 0.382536 -0.92394 0
    outer loop
      vertex -34.8536 59.8536 -5
      vertex -34.5 60 5
      vertex -34.8536 59.8536 5
    endloop
  endfacet
  facet normal 0.382536 -0.92394 0
    outer loop
      vertex -34.5 60 5
      vertex -34.8536 59.8536 -5
      vertex -34.5 60 -5
    endloop
  endfacet
  facet normal -0.382536 0.92394 0
    outer loop
      vertex 34.8536 -59.8536 -5
      vertex 34.5 -60 5
      vertex 34.8536 -59.8536 5
    endloop
  endfacet
  facet normal -0.382536 0.92394 0
    outer loop
      vertex 34.5 -60 5
      vertex 34.8536 -59.8536 -5
      vertex 34.5 -60 -5
    endloop
  endfacet
  facet normal 0.92394 -0.382536 0
    outer loop
      vertex -35 59.5 5
      vertex -34.8536 59.8536 -5
      vertex -34.8536 59.8536 5
    endloop
  endfacet
  facet normal 0.92394 -0.382536 0
    outer loop
      vertex -34.8536 59.8536 -5
      vertex -35 59.5 5
      vertex -35 59.5 -5
    endloop
  endfacet
  facet normal 0.92394 0.382536 0
    outer loop
      vertex -34.8536 -59.8536 5
      vertex -35 -59.5 -5
      vertex -35 -59.5 5
    endloop
  endfacet
  facet normal 0.92394 0.382536 0
    outer loop
      vertex -35 -59.5 -5
      vertex -34.8536 -59.8536 5
      vertex -34.8536 -59.8536 -5
    endloop
  endfacet
  facet normal -0.92394 0.382536 0
    outer loop
      vertex 34.8536 -59.8536 -5
      vertex 35 -59.5 5
      vertex 35 -59.5 -5
    endloop
  endfacet
  facet normal -0.92394 0.382536 0
    outer loop
      vertex 35 -59.5 5
      vertex 34.8536 -59.8536 -5
      vertex 34.8536 -59.8536 5
    endloop
  endfacet
  facet normal 0 1 -0
    outer loop
      vertex 34.5 -60 -5
      vertex -34.5 -60 5
      vertex 34.5 -60 5
    endloop
  endfacet
  facet normal 0 1 0
    outer loop
      vertex -34.5 -60 5
      vertex 34.5 -60 -5
      vertex -34.5 -60 -5
    endloop
  endfacet
  facet normal -1 0 0
    outer loop
      vertex 35 -59.5 -5
      vertex 35 59.5 5
      vertex 35 59.5 -5
    endloop
  endfacet
  facet normal -1 -0 0
    outer loop
      vertex 35 59.5 5
      vertex 35 -59.5 -5
      vertex 35 -59.5 5
    endloop
  endfacet
endsolid OpenSCAD_Model
