<svg xmlns="http://www.w3.org/2000/svg" viewBox="0 0 400 300" width="400" height="300" role="img" aria-label="Drawer Divider / Insert Grid placeholder">
  <defs>
    <linearGradient id="bgd72dd327" x1="0" y1="0" x2="1" y2="1">
      <stop offset="0" stop-color="hsl(200,58%,42%)"/>
      <stop offset="1" stop-color="hsl(175,64%,32%)"/>
    </linearGradient>
    <radialGradient id="vigd72dd327" cx="0.5" cy="0.42" r="0.75">
      <stop offset="0.55" stop-color="#000" stop-opacity="0"/>
      <stop offset="1" stop-color="#000" stop-opacity="0.28"/>
    </radialGradient>
  </defs>
  <rect width="400" height="300" fill="url(#bgd72dd327)"/>
  <g transform="rotate(135 200 150)" opacity="0.9"><circle cx="314" cy="33" r="5" fill="#fff" opacity="0.06"/><circle cx="305" cy="68" r="4" fill="#fff" opacity="0.06"/><circle cx="320" cy="211" r="7" fill="#fff" opacity="0.06"/><circle cx="187" cy="134" r="8" fill="#fff" opacity="0.06"/><circle cx="222" cy="49" r="7" fill="#fff" opacity="0.06"/></g>
  <g opacity="0.95">
            <g fill="none" stroke="#ffffff" stroke-width="6">
              <rect x="128" y="100" width="48" height="48" rx="6"/>
              <rect x="188" y="100" width="48" height="48" rx="6"/>
              <rect x="236" y="100" width="36" height="48" rx="6" opacity="0.6"/>
              <rect x="128" y="160" width="48" height="48" rx="6"/>
              <rect x="188" y="160" width="48" height="48" rx="6"/>
              <rect x="236" y="160" width="36" height="48" rx="6" opacity="0.6"/>
            </g></g>
  <rect width="400" height="300" fill="url(#vigd72dd327)"/>
  <text x="24" y="272" font-family="ui-sans-serif,system-ui,-apple-system,Segoe UI,Roboto,sans-serif"
        font-size="20" font-weight="700" fill="#fff" opacity="0.92">Drawer Divider / Insert G…</text>
  <text x="376" y="40" text-anchor="end" font-family="ui-monospace,SFMono-Regular,Menlo,monospace"
        font-size="15" fill="#fff" opacity="0.6">grid</text>
  <text x="24" y="44" font-family="ui-sans-serif,system-ui,sans-serif" font-size="30" font-weight="800"
        fill="#fff" opacity="0.85">D</text>
</svg>