solid OpenSCAD_Model
  facet normal 0 0 -1
    outer loop
      vertex 10 -9.8 -10
      vertex 1.7 0 -10
      vertex 10 9.8 -10
    endloop
  endfacet
  facet normal 0 0 -1
    outer loop
      vertex 10 -9.8 -10
      vertex 1.69181 -0.166629 -10
      vertex 1.7 0 -10
    endloop
  endfacet
  facet normal 0 0 -1
    outer loop
      vertex 10 -9.8 -10
      vertex 1.66733 -0.331653 -10
      vertex 1.69181 -0.166629 -10
    endloop
  endfacet
  facet normal 0 0 -1
    outer loop
      vertex 10 -9.8 -10
      vertex 1.6268 -0.493484 -10
      vertex 1.66733 -0.331653 -10
    endloop
  endfacet
  facet normal 0 0 -1
    outer loop
      vertex 10 -9.8 -10
      vertex 1.57059 -0.650561 -10
      vertex 1.6268 -0.493484 -10
    endloop
  endfacet
  facet normal 0 0 -1
    outer loop
      vertex 10 -9.8 -10
      vertex 1.49927 -0.801374 -10
      vertex 1.57059 -0.650561 -10
    endloop
  endfacet
  facet normal 0 0 -1
    outer loop
      vertex 10 -9.8 -10
      vertex 1.4135 -0.944468 -10
      vertex 1.49927 -0.801374 -10
    endloop
  endfacet
  facet normal 0 0 -1
    outer loop
      vertex 10 -9.8 -10
      vertex 1.31412 -1.07847 -10
      vertex 1.4135 -0.944468 -10
    endloop
  endfacet
  facet normal 0 0 -1
    outer loop
      vertex 10 -9.8 -10
      vertex 1.20208 -1.20208 -10
      vertex 1.31412 -1.07847 -10
    endloop
  endfacet
  facet normal 0 0 -1
    outer loop
      vertex 10 -9.8 -10
      vertex 1.07847 -1.31412 -10
      vertex 1.20208 -1.20208 -10
    endloop
  endfacet
  facet normal 0 0 -1
    outer loop
      vertex 10 -9.8 -10
      vertex 0.944468 -1.4135 -10
      vertex 1.07847 -1.31412 -10
    endloop
  endfacet
  facet normal 0 0 -1
    outer loop
      vertex 10 -9.8 -10
      vertex 0.801374 -1.49927 -10
      vertex 0.944468 -1.4135 -10
    endloop
  endfacet
  facet normal 0 0 -1
    outer loop
      vertex 10 -9.8 -10
      vertex 0.650561 -1.57059 -10
      vertex 0.801374 -1.49927 -10
    endloop
  endfacet
  facet normal 0 0 -1
    outer loop
      vertex 10 -9.8 -10
      vertex 0.493484 -1.6268 -10
      vertex 0.650561 -1.57059 -10
    endloop
  endfacet
  facet normal 0 0 -1
    outer loop
      vertex 10 -9.8 -10
      vertex 0.331653 -1.66733 -10
      vertex 0.493484 -1.6268 -10
    endloop
  endfacet
  facet normal 0 0 -1
    outer loop
      vertex 10 -9.8 -10
      vertex 0.166629 -1.69181 -10
      vertex 0.331653 -1.66733 -10
    endloop
  endfacet
  facet normal 0 0 -1
    outer loop
      vertex 10 -9.8 -10
      vertex 0 -1.7 -10
      vertex 0.166629 -1.69181 -10
    endloop
  endfacet
  facet normal 0 0 -1
    outer loop
      vertex -10 -9.8 -10
      vertex 0 -1.7 -10
      vertex 10 -9.8 -10
    endloop
  endfacet
  facet normal -0 0 -1
    outer loop
      vertex 0 -1.7 -10
      vertex -10 -9.8 -10
      vertex -0.166629 -1.69181 -10
    endloop
  endfacet
  facet normal -0 0 -1
    outer loop
      vertex -0.166629 -1.69181 -10
      vertex -10 -9.8 -10
      vertex -0.331653 -1.66733 -10
    endloop
  endfacet
  facet normal -0 0 -1
    outer loop
      vertex -0.331653 -1.66733 -10
      vertex -10 -9.8 -10
      vertex -0.493484 -1.6268 -10
    endloop
  endfacet
  facet normal -0 0 -1
    outer loop
      vertex -0.493484 -1.6268 -10
      vertex -10 -9.8 -10
      vertex -0.650561 -1.57059 -10
    endloop
  endfacet
  facet normal -0 0 -1
    outer loop
      vertex -0.650561 -1.57059 -10
      vertex -10 -9.8 -10
      vertex -0.801374 -1.49927 -10
    endloop
  endfacet
  facet normal -0 0 -1
    outer loop
      vertex -0.801374 -1.49927 -10
      vertex -10 -9.8 -10
      vertex -0.944468 -1.4135 -10
    endloop
  endfacet
  facet normal -0 0 -1
    outer loop
      vertex -1.69181 -0.166629 -10
      vertex -10 -9.8 -10
      vertex -1.7 0 -10
    endloop
  endfacet
  facet normal -0 0 -1
    outer loop
      vertex -1.66733 -0.331653 -10
      vertex -10 -9.8 -10
      vertex -1.69181 -0.166629 -10
    endloop
  endfacet
  facet normal -0 0 -1
    outer loop
      vertex -1.6268 -0.493484 -10
      vertex -10 -9.8 -10
      vertex -1.66733 -0.331653 -10
    endloop
  endfacet
  facet normal -0 0 -1
    outer loop
      vertex -1.57059 -0.650561 -10
      vertex -10 -9.8 -10
      vertex -1.6268 -0.493484 -10
    endloop
  endfacet
  facet normal -0 0 -1
    outer loop
      vertex -1.49927 -0.801374 -10
      vertex -10 -9.8 -10
      vertex -1.57059 -0.650561 -10
    endloop
  endfacet
  facet normal -0 0 -1
    outer loop
      vertex -1.4135 -0.944468 -10
      vertex -10 -9.8 -10
      vertex -1.49927 -0.801374 -10
    endloop
  endfacet
  facet normal -0 0 -1
    outer loop
      vertex -1.31412 -1.07847 -10
      vertex -10 -9.8 -10
      vertex -1.4135 -0.944468 -10
    endloop
  endfacet
  facet normal -0 0 -1
    outer loop
      vertex -1.20208 -1.20208 -10
      vertex -10 -9.8 -10
      vertex -1.31412 -1.07847 -10
    endloop
  endfacet
  facet normal -0 0 -1
    outer loop
      vertex -1.07847 -1.31412 -10
      vertex -10 -9.8 -10
      vertex -1.20208 -1.20208 -10
    endloop
  endfacet
  facet normal -0 0 -1
    outer loop
      vertex -0.944468 -1.4135 -10
      vertex -10 -9.8 -10
      vertex -1.07847 -1.31412 -10
    endloop
  endfacet
  facet normal 0 0 -1
    outer loop
      vertex 1.69181 0.166629 -10
      vertex 10 9.8 -10
      vertex 1.7 0 -10
    endloop
  endfacet
  facet normal 0 0 -1
    outer loop
      vertex 1.66733 0.331653 -10
      vertex 10 9.8 -10
      vertex 1.69181 0.166629 -10
    endloop
  endfacet
  facet normal 0 0 -1
    outer loop
      vertex 1.6268 0.493484 -10
      vertex 10 9.8 -10
      vertex 1.66733 0.331653 -10
    endloop
  endfacet
  facet normal 0 0 -1
    outer loop
      vertex 1.57059 0.650561 -10
      vertex 10 9.8 -10
      vertex 1.6268 0.493484 -10
    endloop
  endfacet
  facet normal 0 0 -1
    outer loop
      vertex 1.49927 0.801374 -10
      vertex 10 9.8 -10
      vertex 1.57059 0.650561 -10
    endloop
  endfacet
  facet normal 0 0 -1
    outer loop
      vertex 1.4135 0.944468 -10
      vertex 10 9.8 -10
      vertex 1.49927 0.801374 -10
    endloop
  endfacet
  facet normal 0 0 -1
    outer loop
      vertex 1.31412 1.07847 -10
      vertex 10 9.8 -10
      vertex 1.4135 0.944468 -10
    endloop
  endfacet
  facet normal 0 0 -1
    outer loop
      vertex 1.20208 1.20208 -10
      vertex 10 9.8 -10
      vertex 1.31412 1.07847 -10
    endloop
  endfacet
  facet normal 0 0 -1
    outer loop
      vertex 1.07847 1.31412 -10
      vertex 10 9.8 -10
      vertex 1.20208 1.20208 -10
    endloop
  endfacet
  facet normal 0 0 -1
    outer loop
      vertex 0.944468 1.4135 -10
      vertex 10 9.8 -10
      vertex 1.07847 1.31412 -10
    endloop
  endfacet
  facet normal 0 0 -1
    outer loop
      vertex 0.801374 1.49927 -10
      vertex 10 9.8 -10
      vertex 0.944468 1.4135 -10
    endloop
  endfacet
  facet normal 0 0 -1
    outer loop
      vertex 0.650561 1.57059 -10
      vertex 10 9.8 -10
      vertex 0.801374 1.49927 -10
    endloop
  endfacet
  facet normal 0 0 -1
    outer loop
      vertex 0.493484 1.6268 -10
      vertex 10 9.8 -10
      vertex 0.650561 1.57059 -10
    endloop
  endfacet
  facet normal 0 0 -1
    outer loop
      vertex 0.331653 1.66733 -10
      vertex 10 9.8 -10
      vertex 0.493484 1.6268 -10
    endloop
  endfacet
  facet normal 0 0 -1
    outer loop
      vertex 0.166629 1.69181 -10
      vertex 10 9.8 -10
      vertex 0.331653 1.66733 -10
    endloop
  endfacet
  facet normal 0 0 -1
    outer loop
      vertex 0 1.7 -10
      vertex 10 9.8 -10
      vertex 0.166629 1.69181 -10
    endloop
  endfacet
  facet normal 0 0 -1
    outer loop
      vertex -10 9.8 -10
      vertex 0 1.7 -10
      vertex -0.166629 1.69181 -10
    endloop
  endfacet
  facet normal 0 0 -1
    outer loop
      vertex -10 9.8 -10
      vertex -0.166629 1.69181 -10
      vertex -0.331653 1.66733 -10
    endloop
  endfacet
  facet normal 0 0 -1
    outer loop
      vertex -10 9.8 -10
      vertex -0.331653 1.66733 -10
      vertex -0.493484 1.6268 -10
    endloop
  endfacet
  facet normal 0 0 -1
    outer loop
      vertex -10 9.8 -10
      vertex -0.493484 1.6268 -10
      vertex -0.650561 1.57059 -10
    endloop
  endfacet
  facet normal 0 0 -1
    outer loop
      vertex -10 9.8 -10
      vertex -0.650561 1.57059 -10
      vertex -0.801374 1.49927 -10
    endloop
  endfacet
  facet normal 0 0 -1
    outer loop
      vertex -10 9.8 -10
      vertex -0.801374 1.49927 -10
      vertex -0.944468 1.4135 -10
    endloop
  endfacet
  facet normal 0 0 -1
    outer loop
      vertex -10 9.8 -10
      vertex -0.944468 1.4135 -10
      vertex -1.07847 1.31412 -10
    endloop
  endfacet
  facet normal 0 0 -1
    outer loop
      vertex -10 9.8 -10
      vertex -1.7 0 -10
      vertex -10 -9.8 -10
    endloop
  endfacet
  facet normal 0 0 -1
    outer loop
      vertex -1.7 0 -10
      vertex -10 9.8 -10
      vertex -1.69181 0.166629 -10
    endloop
  endfacet
  facet normal 0 0 -1
    outer loop
      vertex -1.69181 0.166629 -10
      vertex -10 9.8 -10
      vertex -1.66733 0.331653 -10
    endloop
  endfacet
  facet normal 0 0 -1
    outer loop
      vertex -1.66733 0.331653 -10
      vertex -10 9.8 -10
      vertex -1.6268 0.493484 -10
    endloop
  endfacet
  facet normal 0 0 -1
    outer loop
      vertex -1.6268 0.493484 -10
      vertex -10 9.8 -10
      vertex -1.57059 0.650561 -10
    endloop
  endfacet
  facet normal 0 0 -1
    outer loop
      vertex -1.57059 0.650561 -10
      vertex -10 9.8 -10
      vertex -1.49927 0.801374 -10
    endloop
  endfacet
  facet normal 0 0 -1
    outer loop
      vertex -1.49927 0.801374 -10
      vertex -10 9.8 -10
      vertex -1.4135 0.944468 -10
    endloop
  endfacet
  facet normal 0 0 -1
    outer loop
      vertex 0 1.7 -10
      vertex -10 9.8 -10
      vertex 10 9.8 -10
    endloop
  endfacet
  facet normal 0 0 -1
    outer loop
      vertex -1.20208 1.20208 -10
      vertex -10 9.8 -10
      vertex -1.07847 1.31412 -10
    endloop
  endfacet
  facet normal 0 0 -1
    outer loop
      vertex -1.31412 1.07847 -10
      vertex -10 9.8 -10
      vertex -1.20208 1.20208 -10
    endloop
  endfacet
  facet normal 0 0 -1
    outer loop
      vertex -1.4135 0.944468 -10
      vertex -10 9.8 -10
      vertex -1.31412 1.07847 -10
    endloop
  endfacet
  facet normal 0 -1 0
    outer loop
      vertex -10 -9.8 -0.199997
      vertex -7.5 -9.8 -7.5
      vertex -7.5 -9.8 -2.7
    endloop
  endfacet
  facet normal 0 -1 -0
    outer loop
      vertex -7.5 -9.8 -7.5
      vertex -10 -9.8 -10
      vertex 7.5 -9.8 -7.5
    endloop
  endfacet
  facet normal 0 -1 0
    outer loop
      vertex -10 -9.8 -10
      vertex -7.5 -9.8 -7.5
      vertex -10 -9.8 -0.199997
    endloop
  endfacet
  facet normal 0 -1 0
    outer loop
      vertex 7.5 -9.8 -7.5
      vertex 10 -9.8 -0.199997
      vertex 7.5 -9.8 -2.7
    endloop
  endfacet
  facet normal 0 -1 0
    outer loop
      vertex 7.5 -9.8 -7.5
      vertex 10 -9.8 -10
      vertex 10 -9.8 -0.199997
    endloop
  endfacet
  facet normal 0 -1 0
    outer loop
      vertex 10 -9.8 -10
      vertex 7.5 -9.8 -7.5
      vertex -10 -9.8 -10
    endloop
  endfacet
  facet normal -1 0 0
    outer loop
      vertex -10 -9.8 -10
      vertex -10 9.8 -0.199997
      vertex -10 9.8 -10
    endloop
  endfacet
  facet normal -1 -0 0
    outer loop
      vertex -10 9.8 -0.199997
      vertex -10 -9.8 -10
      vertex -10 -9.8 -0.199997
    endloop
  endfacet
  facet normal 0.707107 -0 0.707106
    outer loop
      vertex -10 -9.8 -0.199997
      vertex -7.5 9.8 -2.7
      vertex -10 9.8 -0.199997
    endloop
  endfacet
  facet normal 0.707107 0 0.707106
    outer loop
      vertex -7.5 9.8 -2.7
      vertex -10 -9.8 -0.199997
      vertex -7.5 -9.8 -2.7
    endloop
  endfacet
  facet normal 1 -0 0
    outer loop
      vertex -7.5 -9.8 -2.7
      vertex -7.5 9.8 -7.5
      vertex -7.5 9.8 -2.7
    endloop
  endfacet
  facet normal 1 0 0
    outer loop
      vertex -7.5 9.8 -7.5
      vertex -7.5 -9.8 -2.7
      vertex -7.5 -9.8 -7.5
    endloop
  endfacet
  facet normal 0 1 0
    outer loop
      vertex 10 9.8 -0.199997
      vertex 7.5 9.8 -7.5
      vertex 7.5 9.8 -2.7
    endloop
  endfacet
  facet normal 0 1 0
    outer loop
      vertex 7.5 9.8 -7.5
      vertex 10 9.8 -10
      vertex -7.5 9.8 -7.5
    endloop
  endfacet
  facet normal 0 1 -0
    outer loop
      vertex 10 9.8 -10
      vertex 7.5 9.8 -7.5
      vertex 10 9.8 -0.199997
    endloop
  endfacet
  facet normal 0 1 -0
    outer loop
      vertex -7.5 9.8 -7.5
      vertex -10 9.8 -0.199997
      vertex -7.5 9.8 -2.7
    endloop
  endfacet
  facet normal 0 1 0
    outer loop
      vertex -7.5 9.8 -7.5
      vertex -10 9.8 -10
      vertex -10 9.8 -0.199997
    endloop
  endfacet
  facet normal 0 1 0
    outer loop
      vertex -10 9.8 -10
      vertex -7.5 9.8 -7.5
      vertex 10 9.8 -10
    endloop
  endfacet
  facet normal 1 -0 0
    outer loop
      vertex 10 -9.8 -0.199997
      vertex 10 9.8 -10
      vertex 10 9.8 -0.199997
    endloop
  endfacet
  facet normal 1 0 0
    outer loop
      vertex 10 9.8 -10
      vertex 10 -9.8 -0.199997
      vertex 10 -9.8 -10
    endloop
  endfacet
  facet normal -1 0 0
    outer loop
      vertex 7.5 -9.8 -7.5
      vertex 7.5 9.8 -2.7
      vertex 7.5 9.8 -7.5
    endloop
  endfacet
  facet normal -1 -0 0
    outer loop
      vertex 7.5 9.8 -2.7
      vertex 7.5 -9.8 -7.5
      vertex 7.5 -9.8 -2.7
    endloop
  endfacet
  facet normal -0.707107 0 0.707106
    outer loop
      vertex 7.5 -9.8 -2.7
      vertex 10 9.8 -0.199997
      vertex 7.5 9.8 -2.7
    endloop
  endfacet
  facet normal -0.707107 0 0.707106
    outer loop
      vertex 10 9.8 -0.199997
      vertex 7.5 -9.8 -2.7
      vertex 10 -9.8 -0.199997
    endloop
  endfacet
  facet normal 0.803211 0.595694 0
    outer loop
      vertex 3.74161 2.50007 -0.200001
      vertex 3.47855 2.85477 -7.5
      vertex 3.47855 2.85477 -0.200001
    endloop
  endfacet
  facet normal 0.803211 0.595694 0
    outer loop
      vertex 3.47855 2.85477 -7.5
      vertex 3.74161 2.50007 -0.200001
      vertex 3.74161 2.50007 -7.5
    endloop
  endfacet
  facet normal 0.989176 0.146736 0
    outer loop
      vertex 4.47833 0.441076 -0.200001
      vertex 4.41353 0.877906 -7.5
      vertex 4.41353 0.877906 -0.200001
    endloop
  endfacet
  facet normal 0.989176 0.146736 0
    outer loop
      vertex 4.41353 0.877906 -7.5
      vertex 4.47833 0.441076 -0.200001
      vertex 4.47833 0.441076 -7.5
    endloop
  endfacet
  facet normal -0.903991 -0.427551 0
    outer loop
      vertex -3.96865 -2.12128 -7.5
      vertex -4.15746 -1.72207 -0.200001
      vertex -4.15746 -1.72207 -7.5
    endloop
  endfacet
  facet normal -0.903991 -0.427551 0
    outer loop
      vertex -4.15746 -1.72207 -0.200001
      vertex -3.96865 -2.12128 -7.5
      vertex -3.96865 -2.12128 -0.200001
    endloop
  endfacet
  facet normal 0.740946 0.671564 0
    outer loop
      vertex 3.47855 2.85477 -0.200001
      vertex 3.18198 3.18198 -7.5
      vertex 3.18198 3.18198 -0.200001
    endloop
  endfacet
  facet normal 0.740946 0.671564 0
    outer loop
      vertex 3.18198 3.18198 -7.5
      vertex 3.47855 2.85477 -0.200001
      vertex 3.47855 2.85477 -7.5
    endloop
  endfacet
  facet normal -0.803211 -0.595694 0
    outer loop
      vertex -3.47855 -2.85477 -7.5
      vertex -3.74161 -2.50007 -0.200001
      vertex -3.74161 -2.50007 -7.5
    endloop
  endfacet
  facet normal -0.803211 -0.595694 0
    outer loop
      vertex -3.74161 -2.50007 -0.200001
      vertex -3.47855 -2.85477 -7.5
      vertex -3.47855 -2.85477 -0.200001
    endloop
  endfacet
  facet normal 0.941546 0.336886 0
    outer loop
      vertex 4.30623 1.30628 -0.200001
      vertex 4.15746 1.72207 -7.5
      vertex 4.15746 1.72207 -0.200001
    endloop
  endfacet
  facet normal 0.941546 0.336886 0
    outer loop
      vertex 4.15746 1.72207 -7.5
      vertex 4.30623 1.30628 -0.200001
      vertex 4.30623 1.30628 -7.5
    endloop
  endfacet
  facet normal 0.857727 0.514106 0
    outer loop
      vertex 3.96865 2.12128 -0.200001
      vertex 3.74161 2.50007 -7.5
      vertex 3.74161 2.50007 -0.200001
    endloop
  endfacet
  facet normal 0.857727 0.514106 0
    outer loop
      vertex 3.74161 2.50007 -7.5
      vertex 3.96865 2.12128 -0.200001
      vertex 3.96865 2.12128 -7.5
    endloop
  endfacet
  facet normal -0.857727 -0.514106 0
    outer loop
      vertex -3.74161 -2.50007 -7.5
      vertex -3.96865 -2.12128 -0.200001
      vertex -3.96865 -2.12128 -7.5
    endloop
  endfacet
  facet normal -0.857727 -0.514106 0
    outer loop
      vertex -3.96865 -2.12128 -0.200001
      vertex -3.74161 -2.50007 -7.5
      vertex -3.74161 -2.50007 -0.200001
    endloop
  endfacet
  facet normal -0.514106 -0.857727 0
    outer loop
      vertex -2.50007 -3.74161 -7.5
      vertex -2.12128 -3.96865 -0.200001
      vertex -2.50007 -3.74161 -0.200001
    endloop
  endfacet
  facet normal -0.514106 -0.857727 -0
    outer loop
      vertex -2.12128 -3.96865 -0.200001
      vertex -2.50007 -3.74161 -7.5
      vertex -2.12128 -3.96865 -7.5
    endloop
  endfacet
  facet normal -0.740946 -0.671564 0
    outer loop
      vertex -3.18198 -3.18198 -7.5
      vertex -3.47855 -2.85477 -0.200001
      vertex -3.47855 -2.85477 -7.5
    endloop
  endfacet
  facet normal -0.740946 -0.671564 0
    outer loop
      vertex -3.47855 -2.85477 -0.200001
      vertex -3.18198 -3.18198 -7.5
      vertex -3.18198 -3.18198 -0.200001
    endloop
  endfacet
  facet normal 0.903991 0.427551 0
    outer loop
      vertex 4.15746 1.72207 -0.200001
      vertex 3.96865 2.12128 -7.5
      vertex 3.96865 2.12128 -0.200001
    endloop
  endfacet
  facet normal 0.903991 0.427551 0
    outer loop
      vertex 3.96865 2.12128 -7.5
      vertex 4.15746 1.72207 -0.200001
      vertex 4.15746 1.72207 -7.5
    endloop
  endfacet
  facet normal 0.998795 0.0490707 -0
    outer loop
      vertex 4.5 0 -7.4
      vertex 4.47833 0.441076 -0.200001
      vertex 4.5 0 -0.200001
    endloop
  endfacet
  facet normal 0.998795 0.0490707 0
    outer loop
      vertex 4.47833 0.441076 -0.200001
      vertex 4.5 0 -7.4
      vertex 4.47833 0.441076 -7.5
    endloop
  endfacet
  facet normal 0.998795 0.0490707 0
    outer loop
      vertex 4.47833 0.441076 -7.5
      vertex 4.5 0 -7.4
      vertex 4.5 0 -7.5
    endloop
  endfacet
  facet normal -0.970032 -0.242976 0
    outer loop
      vertex -4.30623 -1.30628 -7.5
      vertex -4.41353 -0.877906 -0.200001
      vertex -4.41353 -0.877906 -7.5
    endloop
  endfacet
  facet normal -0.970032 -0.242976 0
    outer loop
      vertex -4.41353 -0.877906 -0.200001
      vertex -4.30623 -1.30628 -7.5
      vertex -4.30623 -1.30628 -0.200001
    endloop
  endfacet
  facet normal -0.242976 -0.970032 0
    outer loop
      vertex -1.30628 -4.30623 -7.5
      vertex -0.877906 -4.41353 -0.200001
      vertex -1.30628 -4.30623 -0.200001
    endloop
  endfacet
  facet normal -0.242976 -0.970032 -0
    outer loop
      vertex -0.877906 -4.41353 -0.200001
      vertex -1.30628 -4.30623 -7.5
      vertex -0.877906 -4.41353 -7.5
    endloop
  endfacet
  facet normal -0.427551 -0.903991 0
    outer loop
      vertex -2.12128 -3.96865 -7.5
      vertex -1.72207 -4.15746 -0.200001
      vertex -2.12128 -3.96865 -0.200001
    endloop
  endfacet
  facet normal -0.427551 -0.903991 -0
    outer loop
      vertex -1.72207 -4.15746 -0.200001
      vertex -2.12128 -3.96865 -7.5
      vertex -1.72207 -4.15746 -7.5
    endloop
  endfacet
  facet normal -0.595694 -0.803211 0
    outer loop
      vertex -2.85477 -3.47855 -7.5
      vertex -2.50007 -3.74161 -0.200001
      vertex -2.85477 -3.47855 -0.200001
    endloop
  endfacet
  facet normal -0.595694 -0.803211 -0
    outer loop
      vertex -2.50007 -3.74161 -0.200001
      vertex -2.85477 -3.47855 -7.5
      vertex -2.50007 -3.74161 -7.5
    endloop
  endfacet
  facet normal 0.970032 0.242976 0
    outer loop
      vertex 4.41353 0.877906 -0.200001
      vertex 4.30623 1.30628 -7.5
      vertex 4.30623 1.30628 -0.200001
    endloop
  endfacet
  facet normal 0.970032 0.242976 0
    outer loop
      vertex 4.30623 1.30628 -7.5
      vertex 4.41353 0.877906 -0.200001
      vertex 4.41353 0.877906 -7.5
    endloop
  endfacet
  facet normal 0.671564 0.740946 -0
    outer loop
      vertex 3.18198 3.18198 -7.5
      vertex 2.85477 3.47855 -0.200001
      vertex 3.18198 3.18198 -0.200001
    endloop
  endfacet
  facet normal 0.671564 0.740946 0
    outer loop
      vertex 2.85477 3.47855 -0.200001
      vertex 3.18198 3.18198 -7.5
      vertex 2.85477 3.47855 -7.5
    endloop
  endfacet
  facet normal -0.998795 -0.0490707 0
    outer loop
      vertex -4.47833 -0.441076 -7.5
      vertex -4.5 0 -7.4
      vertex -4.5 0 -7.5
    endloop
  endfacet
  facet normal -0.998795 -0.0490707 -0
    outer loop
      vertex -4.47833 -0.441076 -0.200001
      vertex -4.5 0 -7.4
      vertex -4.47833 -0.441076 -7.5
    endloop
  endfacet
  facet normal -0.998795 -0.0490707 0
    outer loop
      vertex -4.5 0 -7.4
      vertex -4.47833 -0.441076 -0.200001
      vertex -4.5 0 -0.200001
    endloop
  endfacet
  facet normal -0.146736 -0.989176 0
    outer loop
      vertex -0.877906 -4.41353 -7.5
      vertex -0.441076 -4.47833 -0.200001
      vertex -0.877906 -4.41353 -0.200001
    endloop
  endfacet
  facet normal -0.146736 -0.989176 -0
    outer loop
      vertex -0.441076 -4.47833 -0.200001
      vertex -0.877906 -4.41353 -7.5
      vertex -0.441076 -4.47833 -7.5
    endloop
  endfacet
  facet normal 0.146736 0.989176 -0
    outer loop
      vertex 0.877906 4.41353 -7.5
      vertex 0.441076 4.47833 -0.200001
      vertex 0.877906 4.41353 -0.200001
    endloop
  endfacet
  facet normal 0.146736 0.989176 0
    outer loop
      vertex 0.441076 4.47833 -0.200001
      vertex 0.877906 4.41353 -7.5
      vertex 0.441076 4.47833 -7.5
    endloop
  endfacet
  facet normal 0.0490707 0.998795 0
    outer loop
      vertex 0.441076 4.47833 -0.200001
      vertex 0 4.5 -7.4
      vertex 0 4.5 -0.200001
    endloop
  endfacet
  facet normal 0.0490707 0.998795 -0
    outer loop
      vertex 0.441076 4.47833 -7.5
      vertex 0 4.5 -7.4
      vertex 0.441076 4.47833 -0.200001
    endloop
  endfacet
  facet normal 0.0490707 0.998795 0
    outer loop
      vertex 0 4.5 -7.4
      vertex 0.441076 4.47833 -7.5
      vertex 0 4.5 -7.5
    endloop
  endfacet
  facet normal 0.427551 0.903991 -0
    outer loop
      vertex 2.12128 3.96865 -7.5
      vertex 1.72207 4.15746 -0.200001
      vertex 2.12128 3.96865 -0.200001
    endloop
  endfacet
  facet normal 0.427551 0.903991 0
    outer loop
      vertex 1.72207 4.15746 -0.200001
      vertex 2.12128 3.96865 -7.5
      vertex 1.72207 4.15746 -7.5
    endloop
  endfacet
  facet normal -0.941546 -0.336886 0
    outer loop
      vertex -4.15746 -1.72207 -7.5
      vertex -4.30623 -1.30628 -0.200001
      vertex -4.30623 -1.30628 -7.5
    endloop
  endfacet
  facet normal -0.941546 -0.336886 0
    outer loop
      vertex -4.30623 -1.30628 -0.200001
      vertex -4.15746 -1.72207 -7.5
      vertex -4.15746 -1.72207 -0.200001
    endloop
  endfacet
  facet normal 0.595694 0.803211 -0
    outer loop
      vertex 2.85477 3.47855 -7.5
      vertex 2.50007 3.74161 -0.200001
      vertex 2.85477 3.47855 -0.200001
    endloop
  endfacet
  facet normal 0.595694 0.803211 0
    outer loop
      vertex 2.50007 3.74161 -0.200001
      vertex 2.85477 3.47855 -7.5
      vertex 2.50007 3.74161 -7.5
    endloop
  endfacet
  facet normal 0.336886 0.941546 -0
    outer loop
      vertex 1.72207 4.15746 -7.5
      vertex 1.30628 4.30623 -0.200001
      vertex 1.72207 4.15746 -0.200001
    endloop
  endfacet
  facet normal 0.336886 0.941546 0
    outer loop
      vertex 1.30628 4.30623 -0.200001
      vertex 1.72207 4.15746 -7.5
      vertex 1.30628 4.30623 -7.5
    endloop
  endfacet
  facet normal -0.0490707 -0.998795 0
    outer loop
      vertex -0.441076 -4.47833 -0.200001
      vertex 0 -4.5 -7.4
      vertex 0 -4.5 -0.200001
    endloop
  endfacet
  facet normal -0.0490707 -0.998795 0
    outer loop
      vertex -0.441076 -4.47833 -7.5
      vertex 0 -4.5 -7.4
      vertex -0.441076 -4.47833 -0.200001
    endloop
  endfacet
  facet normal -0.0490707 -0.998795 -0
    outer loop
      vertex 0 -4.5 -7.4
      vertex -0.441076 -4.47833 -7.5
      vertex 0 -4.5 -7.5
    endloop
  endfacet
  facet normal 0.514106 0.857727 -0
    outer loop
      vertex 2.50007 3.74161 -7.5
      vertex 2.12128 3.96865 -0.200001
      vertex 2.50007 3.74161 -0.200001
    endloop
  endfacet
  facet normal 0.514106 0.857727 0
    outer loop
      vertex 2.12128 3.96865 -0.200001
      vertex 2.50007 3.74161 -7.5
      vertex 2.12128 3.96865 -7.5
    endloop
  endfacet
  facet normal 0.242976 0.970032 -0
    outer loop
      vertex 1.30628 4.30623 -7.5
      vertex 0.877906 4.41353 -0.200001
      vertex 1.30628 4.30623 -0.200001
    endloop
  endfacet
  facet normal 0.242976 0.970032 0
    outer loop
      vertex 0.877906 4.41353 -0.200001
      vertex 1.30628 4.30623 -7.5
      vertex 0.877906 4.41353 -7.5
    endloop
  endfacet
  facet normal -0.336886 -0.941546 0
    outer loop
      vertex -1.72207 -4.15746 -7.5
      vertex -1.30628 -4.30623 -0.200001
      vertex -1.72207 -4.15746 -0.200001
    endloop
  endfacet
  facet normal -0.336886 -0.941546 -0
    outer loop
      vertex -1.30628 -4.30623 -0.200001
      vertex -1.72207 -4.15746 -7.5
      vertex -1.30628 -4.30623 -7.5
    endloop
  endfacet
  facet normal -0.671564 -0.740946 0
    outer loop
      vertex -3.18198 -3.18198 -7.5
      vertex -2.85477 -3.47855 -0.200001
      vertex -3.18198 -3.18198 -0.200001
    endloop
  endfacet
  facet normal -0.671564 -0.740946 -0
    outer loop
      vertex -2.85477 -3.47855 -0.200001
      vertex -3.18198 -3.18198 -7.5
      vertex -2.85477 -3.47855 -7.5
    endloop
  endfacet
  facet normal -0.989176 -0.146736 0
    outer loop
      vertex -4.41353 -0.877906 -7.5
      vertex -4.47833 -0.441076 -0.200001
      vertex -4.47833 -0.441076 -7.5
    endloop
  endfacet
  facet normal -0.989176 -0.146736 0
    outer loop
      vertex -4.47833 -0.441076 -0.200001
      vertex -4.41353 -0.877906 -7.5
      vertex -4.41353 -0.877906 -0.200001
    endloop
  endfacet
  facet normal 0 0 1
    outer loop
      vertex 1.69181 0.166629 -0.200001
      vertex 4.47833 0.441076 -0.200001
      vertex 4.41353 0.877906 -0.200001
    endloop
  endfacet
  facet normal 0 0 1
    outer loop
      vertex 1.66733 0.331653 -0.200001
      vertex 4.41353 0.877906 -0.200001
      vertex 4.30623 1.30628 -0.200001
    endloop
  endfacet
  facet normal 0 0 1
    outer loop
      vertex 1.6268 0.493484 -0.200001
      vertex 4.30623 1.30628 -0.200001
      vertex 4.15746 1.72207 -0.200001
    endloop
  endfacet
  facet normal 0 0 1
    outer loop
      vertex 1.57059 0.650561 -0.200001
      vertex 4.15746 1.72207 -0.200001
      vertex 3.96865 2.12128 -0.200001
    endloop
  endfacet
  facet normal 0 0 1
    outer loop
      vertex 1.49927 0.801374 -0.200001
      vertex 3.96865 2.12128 -0.200001
      vertex 3.74161 2.50007 -0.200001
    endloop
  endfacet
  facet normal 0 0 1
    outer loop
      vertex 1.4135 0.944468 -0.200001
      vertex 3.74161 2.50007 -0.200001
      vertex 3.47855 2.85477 -0.200001
    endloop
  endfacet
  facet normal 0 0 1
    outer loop
      vertex 1.31412 1.07847 -0.200001
      vertex 3.47855 2.85477 -0.200001
      vertex 3.18198 3.18198 -0.200001
    endloop
  endfacet
  facet normal 0 0 1
    outer loop
      vertex 1.20208 1.20208 -0.200001
      vertex 3.18198 3.18198 -0.200001
      vertex 2.85477 3.47855 -0.200001
    endloop
  endfacet
  facet normal 0 0 1
    outer loop
      vertex 1.07847 1.31412 -0.200001
      vertex 2.85477 3.47855 -0.200001
      vertex 2.50007 3.74161 -0.200001
    endloop
  endfacet
  facet normal 0 0 1
    outer loop
      vertex 0.944468 1.4135 -0.200001
      vertex 2.50007 3.74161 -0.200001
      vertex 2.12128 3.96865 -0.200001
    endloop
  endfacet
  facet normal 0 0 1
    outer loop
      vertex 0.801374 1.49927 -0.200001
      vertex 2.12128 3.96865 -0.200001
      vertex 1.72207 4.15746 -0.200001
    endloop
  endfacet
  facet normal 0 0 1
    outer loop
      vertex 3.74161 2.50007 -0.200001
      vertex 1.4135 0.944468 -0.200001
      vertex 1.49927 0.801374 -0.200001
    endloop
  endfacet
  facet normal 0 0 1
    outer loop
      vertex 4.5 0 -0.200001
      vertex 1.69181 0.166629 -0.200001
      vertex 1.7 0 -0.200001
    endloop
  endfacet
  facet normal 0 0 1
    outer loop
      vertex 4.47833 0.441076 -0.200001
      vertex 1.69181 0.166629 -0.200001
      vertex 4.5 0 -0.200001
    endloop
  endfacet
  facet normal 0 -0 1
    outer loop
      vertex 1.69181 0.166629 -0.200001
      vertex 4.41353 0.877906 -0.200001
      vertex 1.66733 0.331653 -0.200001
    endloop
  endfacet
  facet normal 0 0 1
    outer loop
      vertex 4.30623 1.30628 -0.200001
      vertex 1.6268 0.493484 -0.200001
      vertex 1.66733 0.331653 -0.200001
    endloop
  endfacet
  facet normal 0 0 1
    outer loop
      vertex 4.15746 1.72207 -0.200001
      vertex 1.57059 0.650561 -0.200001
      vertex 1.6268 0.493484 -0.200001
    endloop
  endfacet
  facet normal 0 0 1
    outer loop
      vertex 3.96865 2.12128 -0.200001
      vertex 1.49927 0.801374 -0.200001
      vertex 1.57059 0.650561 -0.200001
    endloop
  endfacet
  facet normal 0 0 1
    outer loop
      vertex 3.47855 2.85477 -0.200001
      vertex 1.31412 1.07847 -0.200001
      vertex 1.4135 0.944468 -0.200001
    endloop
  endfacet
  facet normal 0 0 1
    outer loop
      vertex 0.650561 1.57059 -0.200001
      vertex 1.72207 4.15746 -0.200001
      vertex 1.30628 4.30623 -0.200001
    endloop
  endfacet
  facet normal 0 0 1
    outer loop
      vertex 3.18198 3.18198 -0.200001
      vertex 1.20208 1.20208 -0.200001
      vertex 1.31412 1.07847 -0.200001
    endloop
  endfacet
  facet normal 0 0 1
    outer loop
      vertex 2.85477 3.47855 -0.200001
      vertex 1.07847 1.31412 -0.200001
      vertex 1.20208 1.20208 -0.200001
    endloop
  endfacet
  facet normal 0 0 1
    outer loop
      vertex 2.50007 3.74161 -0.200001
      vertex 0.944468 1.4135 -0.200001
      vertex 1.07847 1.31412 -0.200001
    endloop
  endfacet
  facet normal 0 0 1
    outer loop
      vertex 0.493484 1.6268 -0.200001
      vertex 1.30628 4.30623 -0.200001
      vertex 0.877906 4.41353 -0.200001
    endloop
  endfacet
  facet normal 0 0 1
    outer loop
      vertex 2.12128 3.96865 -0.200001
      vertex 0.801374 1.49927 -0.200001
      vertex 0.944468 1.4135 -0.200001
    endloop
  endfacet
  facet normal 0 0 1
    outer loop
      vertex 1.72207 4.15746 -0.200001
      vertex 0.650561 1.57059 -0.200001
      vertex 0.801374 1.49927 -0.200001
    endloop
  endfacet
  facet normal 0 0 1
    outer loop
      vertex 1.30628 4.30623 -0.200001
      vertex 0.493484 1.6268 -0.200001
      vertex 0.650561 1.57059 -0.200001
    endloop
  endfacet
  facet normal 0 0 1
    outer loop
      vertex 0.331653 1.66733 -0.200001
      vertex 0.877906 4.41353 -0.200001
      vertex 0.441076 4.47833 -0.200001
    endloop
  endfacet
  facet normal 0 0 1
    outer loop
      vertex 0.877906 4.41353 -0.200001
      vertex 0.331653 1.66733 -0.200001
      vertex 0.493484 1.6268 -0.200001
    endloop
  endfacet
  facet normal 0 0 1
    outer loop
      vertex 0.441076 4.47833 -0.200001
      vertex 0.166629 1.69181 -0.200001
      vertex 0.331653 1.66733 -0.200001
    endloop
  endfacet
  facet normal 0 0 1
    outer loop
      vertex 0 4.5 -0.200001
      vertex 0.166629 1.69181 -0.200001
      vertex 0.441076 4.47833 -0.200001
    endloop
  endfacet
  facet normal 0 0 1
    outer loop
      vertex 0.166629 1.69181 -0.200001
      vertex 0 4.5 -0.200001
      vertex 0 1.7 -0.200001
    endloop
  endfacet
  facet normal 0 0 1
    outer loop
      vertex -0.166629 -1.69181 -0.200001
      vertex 0 -4.5 -0.200001
      vertex 0 -1.7 -0.200001
    endloop
  endfacet
  facet normal 0 0 1
    outer loop
      vertex -0.441076 -4.47833 -0.200001
      vertex -0.166629 -1.69181 -0.200001
      vertex -0.331653 -1.66733 -0.200001
    endloop
  endfacet
  facet normal 0 0 1
    outer loop
      vertex -0.166629 -1.69181 -0.200001
      vertex -0.441076 -4.47833 -0.200001
      vertex 0 -4.5 -0.200001
    endloop
  endfacet
  facet normal 0 0 1
    outer loop
      vertex -0.877906 -4.41353 -0.200001
      vertex -0.331653 -1.66733 -0.200001
      vertex -0.493484 -1.6268 -0.200001
    endloop
  endfacet
  facet normal 0 0 1
    outer loop
      vertex -1.30628 -4.30623 -0.200001
      vertex -0.493484 -1.6268 -0.200001
      vertex -0.650561 -1.57059 -0.200001
    endloop
  endfacet
  facet normal 0 0 1
    outer loop
      vertex -1.72207 -4.15746 -0.200001
      vertex -0.650561 -1.57059 -0.200001
      vertex -0.801374 -1.49927 -0.200001
    endloop
  endfacet
  facet normal 0 0 1
    outer loop
      vertex -0.331653 -1.66733 -0.200001
      vertex -0.877906 -4.41353 -0.200001
      vertex -0.441076 -4.47833 -0.200001
    endloop
  endfacet
  facet normal 0 0 1
    outer loop
      vertex -2.12128 -3.96865 -0.200001
      vertex -0.801374 -1.49927 -0.200001
      vertex -0.944468 -1.4135 -0.200001
    endloop
  endfacet
  facet normal 0 0 1
    outer loop
      vertex -2.50007 -3.74161 -0.200001
      vertex -0.944468 -1.4135 -0.200001
      vertex -1.07847 -1.31412 -0.200001
    endloop
  endfacet
  facet normal 0 0 1
    outer loop
      vertex -2.85477 -3.47855 -0.200001
      vertex -1.07847 -1.31412 -0.200001
      vertex -1.20208 -1.20208 -0.200001
    endloop
  endfacet
  facet normal 0 0 1
    outer loop
      vertex -0.493484 -1.6268 -0.200001
      vertex -1.30628 -4.30623 -0.200001
      vertex -0.877906 -4.41353 -0.200001
    endloop
  endfacet
  facet normal 0 0 1
    outer loop
      vertex -3.18198 -3.18198 -0.200001
      vertex -1.20208 -1.20208 -0.200001
      vertex -1.31412 -1.07847 -0.200001
    endloop
  endfacet
  facet normal 0 0 1
    outer loop
      vertex -3.47855 -2.85477 -0.200001
      vertex -1.31412 -1.07847 -0.200001
      vertex -1.4135 -0.944468 -0.200001
    endloop
  endfacet
  facet normal 0 0 1
    outer loop
      vertex -3.74161 -2.50007 -0.200001
      vertex -1.4135 -0.944468 -0.200001
      vertex -1.49927 -0.801374 -0.200001
    endloop
  endfacet
  facet normal 0 0 1
    outer loop
      vertex -3.96865 -2.12128 -0.200001
      vertex -1.49927 -0.801374 -0.200001
      vertex -1.57059 -0.650561 -0.200001
    endloop
  endfacet
  facet normal 0 0 1
    outer loop
      vertex -4.15746 -1.72207 -0.200001
      vertex -1.57059 -0.650561 -0.200001
      vertex -1.6268 -0.493484 -0.200001
    endloop
  endfacet
  facet normal 0 0 1
    outer loop
      vertex -4.30623 -1.30628 -0.200001
      vertex -1.6268 -0.493484 -0.200001
      vertex -1.66733 -0.331653 -0.200001
    endloop
  endfacet
  facet normal 0 0 1
    outer loop
      vertex -4.41353 -0.877906 -0.200001
      vertex -1.66733 -0.331653 -0.200001
      vertex -1.69181 -0.166629 -0.200001
    endloop
  endfacet
  facet normal 0 0 1
    outer loop
      vertex -0.650561 -1.57059 -0.200001
      vertex -1.72207 -4.15746 -0.200001
      vertex -1.30628 -4.30623 -0.200001
    endloop
  endfacet
  facet normal 0 0 1
    outer loop
      vertex -4.47833 -0.441076 -0.200001
      vertex -1.69181 -0.166629 -0.200001
      vertex -1.7 0 -0.200001
    endloop
  endfacet
  facet normal 0 0 1
    outer loop
      vertex -0.801374 -1.49927 -0.200001
      vertex -2.12128 -3.96865 -0.200001
      vertex -1.72207 -4.15746 -0.200001
    endloop
  endfacet
  facet normal 0 0 1
    outer loop
      vertex -0.944468 -1.4135 -0.200001
      vertex -2.50007 -3.74161 -0.200001
      vertex -2.12128 -3.96865 -0.200001
    endloop
  endfacet
  facet normal 0 0 1
    outer loop
      vertex -1.07847 -1.31412 -0.200001
      vertex -2.85477 -3.47855 -0.200001
      vertex -2.50007 -3.74161 -0.200001
    endloop
  endfacet
  facet normal 0 0 1
    outer loop
      vertex -1.20208 -1.20208 -0.200001
      vertex -3.18198 -3.18198 -0.200001
      vertex -2.85477 -3.47855 -0.200001
    endloop
  endfacet
  facet normal 0 0 1
    outer loop
      vertex -1.31412 -1.07847 -0.200001
      vertex -3.47855 -2.85477 -0.200001
      vertex -3.18198 -3.18198 -0.200001
    endloop
  endfacet
  facet normal 0 0 1
    outer loop
      vertex -1.4135 -0.944468 -0.200001
      vertex -3.74161 -2.50007 -0.200001
      vertex -3.47855 -2.85477 -0.200001
    endloop
  endfacet
  facet normal 0 0 1
    outer loop
      vertex -1.49927 -0.801374 -0.200001
      vertex -3.96865 -2.12128 -0.200001
      vertex -3.74161 -2.50007 -0.200001
    endloop
  endfacet
  facet normal 0 0 1
    outer loop
      vertex -1.57059 -0.650561 -0.200001
      vertex -4.15746 -1.72207 -0.200001
      vertex -3.96865 -2.12128 -0.200001
    endloop
  endfacet
  facet normal 0 0 1
    outer loop
      vertex -1.6268 -0.493484 -0.200001
      vertex -4.30623 -1.30628 -0.200001
      vertex -4.15746 -1.72207 -0.200001
    endloop
  endfacet
  facet normal 0 0 1
    outer loop
      vertex -1.66733 -0.331653 -0.200001
      vertex -4.41353 -0.877906 -0.200001
      vertex -4.30623 -1.30628 -0.200001
    endloop
  endfacet
  facet normal 0 0 1
    outer loop
      vertex -1.69181 -0.166629 -0.200001
      vertex -4.47833 -0.441076 -0.200001
      vertex -4.41353 -0.877906 -0.200001
    endloop
  endfacet
  facet normal 0 -0 1
    outer loop
      vertex -4.47833 -0.441076 -0.200001
      vertex -1.7 0 -0.200001
      vertex -4.5 0 -0.200001
    endloop
  endfacet
  facet normal -1 0 0
    outer loop
      vertex 0 1.7 -7.4
      vertex 0 4.5 -0.200001
      vertex 0 4.5 -7.4
    endloop
  endfacet
  facet normal -1 -0 0
    outer loop
      vertex 0 4.5 -0.200001
      vertex 0 1.7 -7.4
      vertex 0 1.7 -0.200001
    endloop
  endfacet
  facet normal 0 1 -0
    outer loop
      vertex -1.7 0 -7.4
      vertex -4.5 0 -0.200001
      vertex -1.7 0 -0.200001
    endloop
  endfacet
  facet normal 0 1 0
    outer loop
      vertex -4.5 0 -0.200001
      vertex -1.7 0 -7.4
      vertex -4.5 0 -7.4
    endloop
  endfacet
  facet normal 1 -0 0
    outer loop
      vertex 0 -4.5 -0.200001
      vertex 0 -1.7 -7.4
      vertex 0 -1.7 -0.200001
    endloop
  endfacet
  facet normal 1 0 0
    outer loop
      vertex 0 -1.7 -7.4
      vertex 0 -4.5 -0.200001
      vertex 0 -4.5 -7.4
    endloop
  endfacet
  facet normal 0 -1 0
    outer loop
      vertex 1.7 0 -7.4
      vertex 4.5 0 -0.200001
      vertex 1.7 0 -0.200001
    endloop
  endfacet
  facet normal 0 -1 -0
    outer loop
      vertex 4.5 0 -0.200001
      vertex 1.7 0 -7.4
      vertex 4.5 0 -7.4
    endloop
  endfacet
  facet normal -0.427551 0.903991 0
    outer loop
      vertex -1.72207 4.15746 -7.5
      vertex -2.12128 3.96865 -7.4
      vertex -1.72207 4.15746 -7.4
    endloop
  endfacet
  facet normal -0.427551 0.903991 0
    outer loop
      vertex -2.12128 3.96865 -7.4
      vertex -1.72207 4.15746 -7.5
      vertex -2.12128 3.96865 -7.5
    endloop
  endfacet
  facet normal -0.595694 0.803211 0
    outer loop
      vertex -2.50007 3.74161 -7.5
      vertex -2.85477 3.47855 -7.4
      vertex -2.50007 3.74161 -7.4
    endloop
  endfacet
  facet normal -0.595694 0.803211 0
    outer loop
      vertex -2.85477 3.47855 -7.4
      vertex -2.50007 3.74161 -7.5
      vertex -2.85477 3.47855 -7.5
    endloop
  endfacet
  facet normal -0.336886 0.941546 0
    outer loop
      vertex -1.30628 4.30623 -7.5
      vertex -1.72207 4.15746 -7.4
      vertex -1.30628 4.30623 -7.4
    endloop
  endfacet
  facet normal -0.336886 0.941546 0
    outer loop
      vertex -1.72207 4.15746 -7.4
      vertex -1.30628 4.30623 -7.5
      vertex -1.72207 4.15746 -7.5
    endloop
  endfacet
  facet normal 0.989176 -0.146736 0
    outer loop
      vertex 4.41353 -0.877906 -7.4
      vertex 4.47833 -0.441076 -7.5
      vertex 4.47833 -0.441076 -7.4
    endloop
  endfacet
  facet normal 0.989176 -0.146736 0
    outer loop
      vertex 4.47833 -0.441076 -7.5
      vertex 4.41353 -0.877906 -7.4
      vertex 4.41353 -0.877906 -7.5
    endloop
  endfacet
  facet normal 0.998795 -0.0490707 0
    outer loop
      vertex 4.47833 -0.441076 -7.4
      vertex 4.5 0 -7.5
      vertex 4.5 0 -7.4
    endloop
  endfacet
  facet normal 0.998795 -0.0490707 0
    outer loop
      vertex 4.5 0 -7.5
      vertex 4.47833 -0.441076 -7.4
      vertex 4.47833 -0.441076 -7.5
    endloop
  endfacet
  facet normal 0.740946 -0.671564 0
    outer loop
      vertex 3.18198 -3.18198 -7.4
      vertex 3.47855 -2.85477 -7.5
      vertex 3.47855 -2.85477 -7.4
    endloop
  endfacet
  facet normal 0.740946 -0.671564 0
    outer loop
      vertex 3.47855 -2.85477 -7.5
      vertex 3.18198 -3.18198 -7.4
      vertex 3.18198 -3.18198 -7.5
    endloop
  endfacet
  facet normal 0.970032 -0.242976 0
    outer loop
      vertex 4.30623 -1.30628 -7.4
      vertex 4.41353 -0.877906 -7.5
      vertex 4.41353 -0.877906 -7.4
    endloop
  endfacet
  facet normal 0.970032 -0.242976 0
    outer loop
      vertex 4.41353 -0.877906 -7.5
      vertex 4.30623 -1.30628 -7.4
      vertex 4.30623 -1.30628 -7.5
    endloop
  endfacet
  facet normal 0.514106 -0.857727 0
    outer loop
      vertex 2.12128 -3.96865 -7.5
      vertex 2.50007 -3.74161 -7.4
      vertex 2.12128 -3.96865 -7.4
    endloop
  endfacet
  facet normal 0.514106 -0.857727 0
    outer loop
      vertex 2.50007 -3.74161 -7.4
      vertex 2.12128 -3.96865 -7.5
      vertex 2.50007 -3.74161 -7.5
    endloop
  endfacet
  facet normal 0.803211 -0.595694 0
    outer loop
      vertex 3.47855 -2.85477 -7.4
      vertex 3.74161 -2.50007 -7.5
      vertex 3.74161 -2.50007 -7.4
    endloop
  endfacet
  facet normal 0.803211 -0.595694 0
    outer loop
      vertex 3.74161 -2.50007 -7.5
      vertex 3.47855 -2.85477 -7.4
      vertex 3.47855 -2.85477 -7.5
    endloop
  endfacet
  facet normal 0.903991 -0.427551 0
    outer loop
      vertex 3.96865 -2.12128 -7.4
      vertex 4.15746 -1.72207 -7.5
      vertex 4.15746 -1.72207 -7.4
    endloop
  endfacet
  facet normal 0.903991 -0.427551 0
    outer loop
      vertex 4.15746 -1.72207 -7.5
      vertex 3.96865 -2.12128 -7.4
      vertex 3.96865 -2.12128 -7.5
    endloop
  endfacet
  facet normal -0.803211 0.595694 0
    outer loop
      vertex -3.74161 2.50007 -7.5
      vertex -3.47855 2.85477 -7.4
      vertex -3.47855 2.85477 -7.5
    endloop
  endfacet
  facet normal -0.803211 0.595694 0
    outer loop
      vertex -3.47855 2.85477 -7.4
      vertex -3.74161 2.50007 -7.5
      vertex -3.74161 2.50007 -7.4
    endloop
  endfacet
  facet normal 0.146736 -0.989176 0
    outer loop
      vertex 0.441076 -4.47833 -7.5
      vertex 0.877906 -4.41353 -7.4
      vertex 0.441076 -4.47833 -7.4
    endloop
  endfacet
  facet normal 0.146736 -0.989176 0
    outer loop
      vertex 0.877906 -4.41353 -7.4
      vertex 0.441076 -4.47833 -7.5
      vertex 0.877906 -4.41353 -7.5
    endloop
  endfacet
  facet normal -0.514106 0.857727 0
    outer loop
      vertex -2.12128 3.96865 -7.5
      vertex -2.50007 3.74161 -7.4
      vertex -2.12128 3.96865 -7.4
    endloop
  endfacet
  facet normal -0.514106 0.857727 0
    outer loop
      vertex -2.50007 3.74161 -7.4
      vertex -2.12128 3.96865 -7.5
      vertex -2.50007 3.74161 -7.5
    endloop
  endfacet
  facet normal -0.857727 0.514106 0
    outer loop
      vertex -3.96865 2.12128 -7.5
      vertex -3.74161 2.50007 -7.4
      vertex -3.74161 2.50007 -7.5
    endloop
  endfacet
  facet normal -0.857727 0.514106 0
    outer loop
      vertex -3.74161 2.50007 -7.4
      vertex -3.96865 2.12128 -7.5
      vertex -3.96865 2.12128 -7.4
    endloop
  endfacet
  facet normal -0.903991 0.427551 0
    outer loop
      vertex -4.15746 1.72207 -7.5
      vertex -3.96865 2.12128 -7.4
      vertex -3.96865 2.12128 -7.5
    endloop
  endfacet
  facet normal -0.903991 0.427551 0
    outer loop
      vertex -3.96865 2.12128 -7.4
      vertex -4.15746 1.72207 -7.5
      vertex -4.15746 1.72207 -7.4
    endloop
  endfacet
  facet normal 0.0490707 -0.998795 0
    outer loop
      vertex 0 -4.5 -7.5
      vertex 0.441076 -4.47833 -7.4
      vertex 0 -4.5 -7.4
    endloop
  endfacet
  facet normal 0.0490707 -0.998795 0
    outer loop
      vertex 0.441076 -4.47833 -7.4
      vertex 0 -4.5 -7.5
      vertex 0.441076 -4.47833 -7.5
    endloop
  endfacet
  facet normal -0.740946 0.671564 0
    outer loop
      vertex -3.47855 2.85477 -7.5
      vertex -3.18198 3.18198 -7.4
      vertex -3.18198 3.18198 -7.5
    endloop
  endfacet
  facet normal -0.740946 0.671564 0
    outer loop
      vertex -3.18198 3.18198 -7.4
      vertex -3.47855 2.85477 -7.5
      vertex -3.47855 2.85477 -7.4
    endloop
  endfacet
  facet normal 0.427551 -0.903991 0
    outer loop
      vertex 1.72207 -4.15746 -7.5
      vertex 2.12128 -3.96865 -7.4
      vertex 1.72207 -4.15746 -7.4
    endloop
  endfacet
  facet normal 0.427551 -0.903991 0
    outer loop
      vertex 2.12128 -3.96865 -7.4
      vertex 1.72207 -4.15746 -7.5
      vertex 2.12128 -3.96865 -7.5
    endloop
  endfacet
  facet normal 0.595694 -0.803211 0
    outer loop
      vertex 2.50007 -3.74161 -7.5
      vertex 2.85477 -3.47855 -7.4
      vertex 2.50007 -3.74161 -7.4
    endloop
  endfacet
  facet normal 0.595694 -0.803211 0
    outer loop
      vertex 2.85477 -3.47855 -7.4
      vertex 2.50007 -3.74161 -7.5
      vertex 2.85477 -3.47855 -7.5
    endloop
  endfacet
  facet normal -0.970032 0.242976 0
    outer loop
      vertex -4.41353 0.877906 -7.5
      vertex -4.30623 1.30628 -7.4
      vertex -4.30623 1.30628 -7.5
    endloop
  endfacet
  facet normal -0.970032 0.242976 0
    outer loop
      vertex -4.30623 1.30628 -7.4
      vertex -4.41353 0.877906 -7.5
      vertex -4.41353 0.877906 -7.4
    endloop
  endfacet
  facet normal -0.0490707 0.998795 0
    outer loop
      vertex 0 4.5 -7.5
      vertex -0.441076 4.47833 -7.4
      vertex 0 4.5 -7.4
    endloop
  endfacet
  facet normal -0.0490707 0.998795 0
    outer loop
      vertex -0.441076 4.47833 -7.4
      vertex 0 4.5 -7.5
      vertex -0.441076 4.47833 -7.5
    endloop
  endfacet
  facet normal -0.671564 0.740946 0
    outer loop
      vertex -2.85477 3.47855 -7.5
      vertex -3.18198 3.18198 -7.4
      vertex -2.85477 3.47855 -7.4
    endloop
  endfacet
  facet normal -0.671564 0.740946 0
    outer loop
      vertex -3.18198 3.18198 -7.4
      vertex -2.85477 3.47855 -7.5
      vertex -3.18198 3.18198 -7.5
    endloop
  endfacet
  facet normal -0.242976 0.970032 0
    outer loop
      vertex -0.877906 4.41353 -7.5
      vertex -1.30628 4.30623 -7.4
      vertex -0.877906 4.41353 -7.4
    endloop
  endfacet
  facet normal -0.242976 0.970032 0
    outer loop
      vertex -1.30628 4.30623 -7.4
      vertex -0.877906 4.41353 -7.5
      vertex -1.30628 4.30623 -7.5
    endloop
  endfacet
  facet normal -0.146736 0.989176 0
    outer loop
      vertex -0.441076 4.47833 -7.5
      vertex -0.877906 4.41353 -7.4
      vertex -0.441076 4.47833 -7.4
    endloop
  endfacet
  facet normal -0.146736 0.989176 0
    outer loop
      vertex -0.877906 4.41353 -7.4
      vertex -0.441076 4.47833 -7.5
      vertex -0.877906 4.41353 -7.5
    endloop
  endfacet
  facet normal 0.671564 -0.740946 0
    outer loop
      vertex 2.85477 -3.47855 -7.5
      vertex 3.18198 -3.18198 -7.4
      vertex 2.85477 -3.47855 -7.4
    endloop
  endfacet
  facet normal 0.671564 -0.740946 0
    outer loop
      vertex 3.18198 -3.18198 -7.4
      vertex 2.85477 -3.47855 -7.5
      vertex 3.18198 -3.18198 -7.5
    endloop
  endfacet
  facet normal -0.998795 0.0490707 0
    outer loop
      vertex -4.5 0 -7.5
      vertex -4.47833 0.441076 -7.4
      vertex -4.47833 0.441076 -7.5
    endloop
  endfacet
  facet normal -0.998795 0.0490707 0
    outer loop
      vertex -4.47833 0.441076 -7.4
      vertex -4.5 0 -7.5
      vertex -4.5 0 -7.4
    endloop
  endfacet
  facet normal -0.989176 0.146736 0
    outer loop
      vertex -4.47833 0.441076 -7.5
      vertex -4.41353 0.877906 -7.4
      vertex -4.41353 0.877906 -7.5
    endloop
  endfacet
  facet normal -0.989176 0.146736 0
    outer loop
      vertex -4.41353 0.877906 -7.4
      vertex -4.47833 0.441076 -7.5
      vertex -4.47833 0.441076 -7.4
    endloop
  endfacet
  facet normal 0.336886 -0.941546 0
    outer loop
      vertex 1.30628 -4.30623 -7.5
      vertex 1.72207 -4.15746 -7.4
      vertex 1.30628 -4.30623 -7.4
    endloop
  endfacet
  facet normal 0.336886 -0.941546 0
    outer loop
      vertex 1.72207 -4.15746 -7.4
      vertex 1.30628 -4.30623 -7.5
      vertex 1.72207 -4.15746 -7.5
    endloop
  endfacet
  facet normal -0.941546 0.336886 0
    outer loop
      vertex -4.30623 1.30628 -7.5
      vertex -4.15746 1.72207 -7.4
      vertex -4.15746 1.72207 -7.5
    endloop
  endfacet
  facet normal -0.941546 0.336886 0
    outer loop
      vertex -4.15746 1.72207 -7.4
      vertex -4.30623 1.30628 -7.5
      vertex -4.30623 1.30628 -7.4
    endloop
  endfacet
  facet normal 0.242976 -0.970032 0
    outer loop
      vertex 0.877906 -4.41353 -7.5
      vertex 1.30628 -4.30623 -7.4
      vertex 0.877906 -4.41353 -7.4
    endloop
  endfacet
  facet normal 0.242976 -0.970032 0
    outer loop
      vertex 1.30628 -4.30623 -7.4
      vertex 0.877906 -4.41353 -7.5
      vertex 1.30628 -4.30623 -7.5
    endloop
  endfacet
  facet normal 0.857727 -0.514106 0
    outer loop
      vertex 3.74161 -2.50007 -7.4
      vertex 3.96865 -2.12128 -7.5
      vertex 3.96865 -2.12128 -7.4
    endloop
  endfacet
  facet normal 0.857727 -0.514106 0
    outer loop
      vertex 3.96865 -2.12128 -7.5
      vertex 3.74161 -2.50007 -7.4
      vertex 3.74161 -2.50007 -7.5
    endloop
  endfacet
  facet normal 0.941546 -0.336886 0
    outer loop
      vertex 4.15746 -1.72207 -7.4
      vertex 4.30623 -1.30628 -7.5
      vertex 4.30623 -1.30628 -7.4
    endloop
  endfacet
  facet normal 0.941546 -0.336886 0
    outer loop
      vertex 4.30623 -1.30628 -7.5
      vertex 4.15746 -1.72207 -7.4
      vertex 4.15746 -1.72207 -7.5
    endloop
  endfacet
  facet normal 0 0 1
    outer loop
      vertex 0 4.5 -7.4
      vertex -0.166629 1.69181 -7.4
      vertex 0 1.7 -7.4
    endloop
  endfacet
  facet normal -0 0 1
    outer loop
      vertex -0.441076 4.47833 -7.4
      vertex -0.166629 1.69181 -7.4
      vertex 0 4.5 -7.4
    endloop
  endfacet
  facet normal 0 0 1
    outer loop
      vertex -0.166629 1.69181 -7.4
      vertex -0.441076 4.47833 -7.4
      vertex -0.331653 1.66733 -7.4
    endloop
  endfacet
  facet normal -0 0 1
    outer loop
      vertex -0.877906 4.41353 -7.4
      vertex -0.331653 1.66733 -7.4
      vertex -0.441076 4.47833 -7.4
    endloop
  endfacet
  facet normal 0 0 1
    outer loop
      vertex -0.331653 1.66733 -7.4
      vertex -0.877906 4.41353 -7.4
      vertex -0.493484 1.6268 -7.4
    endloop
  endfacet
  facet normal -0 0 1
    outer loop
      vertex -1.30628 4.30623 -7.4
      vertex -0.493484 1.6268 -7.4
      vertex -0.877906 4.41353 -7.4
    endloop
  endfacet
  facet normal 0 0 1
    outer loop
      vertex -0.493484 1.6268 -7.4
      vertex -1.30628 4.30623 -7.4
      vertex -0.650561 1.57059 -7.4
    endloop
  endfacet
  facet normal -0 0 1
    outer loop
      vertex -1.72207 4.15746 -7.4
      vertex -0.650561 1.57059 -7.4
      vertex -1.30628 4.30623 -7.4
    endloop
  endfacet
  facet normal 0 0 1
    outer loop
      vertex -0.650561 1.57059 -7.4
      vertex -1.72207 4.15746 -7.4
      vertex -0.801374 1.49927 -7.4
    endloop
  endfacet
  facet normal -0 0 1
    outer loop
      vertex -2.12128 3.96865 -7.4
      vertex -0.801374 1.49927 -7.4
      vertex -1.72207 4.15746 -7.4
    endloop
  endfacet
  facet normal 0 0 1
    outer loop
      vertex -0.801374 1.49927 -7.4
      vertex -2.12128 3.96865 -7.4
      vertex -0.944468 1.4135 -7.4
    endloop
  endfacet
  facet normal -0 0 1
    outer loop
      vertex -2.50007 3.74161 -7.4
      vertex -0.944468 1.4135 -7.4
      vertex -2.12128 3.96865 -7.4
    endloop
  endfacet
  facet normal 0 0 1
    outer loop
      vertex -0.944468 1.4135 -7.4
      vertex -2.50007 3.74161 -7.4
      vertex -1.07847 1.31412 -7.4
    endloop
  endfacet
  facet normal -0 0 1
    outer loop
      vertex -2.85477 3.47855 -7.4
      vertex -1.07847 1.31412 -7.4
      vertex -2.50007 3.74161 -7.4
    endloop
  endfacet
  facet normal 0 0 1
    outer loop
      vertex -1.07847 1.31412 -7.4
      vertex -2.85477 3.47855 -7.4
      vertex -1.20208 1.20208 -7.4
    endloop
  endfacet
  facet normal -0 0 1
    outer loop
      vertex -3.18198 3.18198 -7.4
      vertex -1.20208 1.20208 -7.4
      vertex -2.85477 3.47855 -7.4
    endloop
  endfacet
  facet normal 0 0 1
    outer loop
      vertex -1.20208 1.20208 -7.4
      vertex -3.18198 3.18198 -7.4
      vertex -1.31412 1.07847 -7.4
    endloop
  endfacet
  facet normal -0 0 1
    outer loop
      vertex -3.47855 2.85477 -7.4
      vertex -1.31412 1.07847 -7.4
      vertex -3.18198 3.18198 -7.4
    endloop
  endfacet
  facet normal 0 0 1
    outer loop
      vertex -1.31412 1.07847 -7.4
      vertex -3.47855 2.85477 -7.4
      vertex -1.4135 0.944468 -7.4
    endloop
  endfacet
  facet normal -0 0 1
    outer loop
      vertex -3.74161 2.50007 -7.4
      vertex -1.4135 0.944468 -7.4
      vertex -3.47855 2.85477 -7.4
    endloop
  endfacet
  facet normal 0 0 1
    outer loop
      vertex -1.4135 0.944468 -7.4
      vertex -3.74161 2.50007 -7.4
      vertex -1.49927 0.801374 -7.4
    endloop
  endfacet
  facet normal -0 0 1
    outer loop
      vertex -3.96865 2.12128 -7.4
      vertex -1.49927 0.801374 -7.4
      vertex -3.74161 2.50007 -7.4
    endloop
  endfacet
  facet normal 0 0 1
    outer loop
      vertex -1.49927 0.801374 -7.4
      vertex -3.96865 2.12128 -7.4
      vertex -1.57059 0.650561 -7.4
    endloop
  endfacet
  facet normal -0 0 1
    outer loop
      vertex -4.15746 1.72207 -7.4
      vertex -1.57059 0.650561 -7.4
      vertex -3.96865 2.12128 -7.4
    endloop
  endfacet
  facet normal 0 0 1
    outer loop
      vertex -1.57059 0.650561 -7.4
      vertex -4.15746 1.72207 -7.4
      vertex -1.6268 0.493484 -7.4
    endloop
  endfacet
  facet normal -0 0 1
    outer loop
      vertex -4.30623 1.30628 -7.4
      vertex -1.6268 0.493484 -7.4
      vertex -4.15746 1.72207 -7.4
    endloop
  endfacet
  facet normal 0 0 1
    outer loop
      vertex -1.6268 0.493484 -7.4
      vertex -4.30623 1.30628 -7.4
      vertex -1.66733 0.331653 -7.4
    endloop
  endfacet
  facet normal -0 0 1
    outer loop
      vertex -4.41353 0.877906 -7.4
      vertex -1.66733 0.331653 -7.4
      vertex -4.30623 1.30628 -7.4
    endloop
  endfacet
  facet normal 0 0 1
    outer loop
      vertex -1.66733 0.331653 -7.4
      vertex -4.41353 0.877906 -7.4
      vertex -1.69181 0.166629 -7.4
    endloop
  endfacet
  facet normal -0 0 1
    outer loop
      vertex -4.47833 0.441076 -7.4
      vertex -1.69181 0.166629 -7.4
      vertex -4.41353 0.877906 -7.4
    endloop
  endfacet
  facet normal 0 0 1
    outer loop
      vertex -1.69181 0.166629 -7.4
      vertex -4.47833 0.441076 -7.4
      vertex -1.7 0 -7.4
    endloop
  endfacet
  facet normal 0 0 1
    outer loop
      vertex -1.7 0 -7.4
      vertex -4.47833 0.441076 -7.4
      vertex -4.5 0 -7.4
    endloop
  endfacet
  facet normal -0 0 1
    outer loop
      vertex 1.69181 -0.166629 -7.4
      vertex 4.47833 -0.441076 -7.4
      vertex 4.5 0 -7.4
    endloop
  endfacet
  facet normal 0 0 1
    outer loop
      vertex 4.47833 -0.441076 -7.4
      vertex 1.69181 -0.166629 -7.4
      vertex 4.41353 -0.877906 -7.4
    endloop
  endfacet
  facet normal 0 0 1
    outer loop
      vertex 4.41353 -0.877906 -7.4
      vertex 1.66733 -0.331653 -7.4
      vertex 4.30623 -1.30628 -7.4
    endloop
  endfacet
  facet normal -0 0 1
    outer loop
      vertex 1.6268 -0.493484 -7.4
      vertex 4.30623 -1.30628 -7.4
      vertex 1.66733 -0.331653 -7.4
    endloop
  endfacet
  facet normal -0 0 1
    outer loop
      vertex 1.57059 -0.650561 -7.4
      vertex 4.15746 -1.72207 -7.4
      vertex 1.6268 -0.493484 -7.4
    endloop
  endfacet
  facet normal 0 0 1
    outer loop
      vertex 4.15746 -1.72207 -7.4
      vertex 1.57059 -0.650561 -7.4
      vertex 3.96865 -2.12128 -7.4
    endloop
  endfacet
  facet normal 0 0 1
    outer loop
      vertex 3.96865 -2.12128 -7.4
      vertex 1.49927 -0.801374 -7.4
      vertex 3.74161 -2.50007 -7.4
    endloop
  endfacet
  facet normal -0 0 1
    outer loop
      vertex 1.4135 -0.944468 -7.4
      vertex 3.74161 -2.50007 -7.4
      vertex 1.49927 -0.801374 -7.4
    endloop
  endfacet
  facet normal -0 0 1
    outer loop
      vertex 1.31412 -1.07847 -7.4
      vertex 3.47855 -2.85477 -7.4
      vertex 1.4135 -0.944468 -7.4
    endloop
  endfacet
  facet normal 0 0 1
    outer loop
      vertex 3.47855 -2.85477 -7.4
      vertex 1.31412 -1.07847 -7.4
      vertex 3.18198 -3.18198 -7.4
    endloop
  endfacet
  facet normal 0 0 1
    outer loop
      vertex 3.18198 -3.18198 -7.4
      vertex 1.20208 -1.20208 -7.4
      vertex 2.85477 -3.47855 -7.4
    endloop
  endfacet
  facet normal 0 0 1
    outer loop
      vertex 1.69181 -0.166629 -7.4
      vertex 4.5 0 -7.4
      vertex 1.7 0 -7.4
    endloop
  endfacet
  facet normal 0 0 1
    outer loop
      vertex 4.41353 -0.877906 -7.4
      vertex 1.69181 -0.166629 -7.4
      vertex 1.66733 -0.331653 -7.4
    endloop
  endfacet
  facet normal 0 0 1
    outer loop
      vertex 4.30623 -1.30628 -7.4
      vertex 1.6268 -0.493484 -7.4
      vertex 4.15746 -1.72207 -7.4
    endloop
  endfacet
  facet normal -0 0 1
    outer loop
      vertex 1.49927 -0.801374 -7.4
      vertex 3.96865 -2.12128 -7.4
      vertex 1.57059 -0.650561 -7.4
    endloop
  endfacet
  facet normal 0 0 1
    outer loop
      vertex 3.74161 -2.50007 -7.4
      vertex 1.4135 -0.944468 -7.4
      vertex 3.47855 -2.85477 -7.4
    endloop
  endfacet
  facet normal -0 0 1
    outer loop
      vertex 1.20208 -1.20208 -7.4
      vertex 3.18198 -3.18198 -7.4
      vertex 1.31412 -1.07847 -7.4
    endloop
  endfacet
  facet normal -0 0 1
    outer loop
      vertex 1.07847 -1.31412 -7.4
      vertex 2.85477 -3.47855 -7.4
      vertex 1.20208 -1.20208 -7.4
    endloop
  endfacet
  facet normal 0 0 1
    outer loop
      vertex 2.85477 -3.47855 -7.4
      vertex 1.07847 -1.31412 -7.4
      vertex 2.50007 -3.74161 -7.4
    endloop
  endfacet
  facet normal -0 0 1
    outer loop
      vertex 0.944468 -1.4135 -7.4
      vertex 2.50007 -3.74161 -7.4
      vertex 1.07847 -1.31412 -7.4
    endloop
  endfacet
  facet normal 0 0 1
    outer loop
      vertex 2.50007 -3.74161 -7.4
      vertex 0.944468 -1.4135 -7.4
      vertex 2.12128 -3.96865 -7.4
    endloop
  endfacet
  facet normal -0 0 1
    outer loop
      vertex 0.801374 -1.49927 -7.4
      vertex 2.12128 -3.96865 -7.4
      vertex 0.944468 -1.4135 -7.4
    endloop
  endfacet
  facet normal 0 0 1
    outer loop
      vertex 2.12128 -3.96865 -7.4
      vertex 0.801374 -1.49927 -7.4
      vertex 1.72207 -4.15746 -7.4
    endloop
  endfacet
  facet normal -0 0 1
    outer loop
      vertex 0.650561 -1.57059 -7.4
      vertex 1.72207 -4.15746 -7.4
      vertex 0.801374 -1.49927 -7.4
    endloop
  endfacet
  facet normal 0 0 1
    outer loop
      vertex 1.72207 -4.15746 -7.4
      vertex 0.650561 -1.57059 -7.4
      vertex 1.30628 -4.30623 -7.4
    endloop
  endfacet
  facet normal -0 0 1
    outer loop
      vertex 0.493484 -1.6268 -7.4
      vertex 1.30628 -4.30623 -7.4
      vertex 0.650561 -1.57059 -7.4
    endloop
  endfacet
  facet normal 0 0 1
    outer loop
      vertex 1.30628 -4.30623 -7.4
      vertex 0.493484 -1.6268 -7.4
      vertex 0.877906 -4.41353 -7.4
    endloop
  endfacet
  facet normal -0 0 1
    outer loop
      vertex 0.331653 -1.66733 -7.4
      vertex 0.877906 -4.41353 -7.4
      vertex 0.493484 -1.6268 -7.4
    endloop
  endfacet
  facet normal 0 0 1
    outer loop
      vertex 0.877906 -4.41353 -7.4
      vertex 0.331653 -1.66733 -7.4
      vertex 0.441076 -4.47833 -7.4
    endloop
  endfacet
  facet normal -0 0 1
    outer loop
      vertex 0.166629 -1.69181 -7.4
      vertex 0.441076 -4.47833 -7.4
      vertex 0.331653 -1.66733 -7.4
    endloop
  endfacet
  facet normal -0 0 1
    outer loop
      vertex 0 -1.7 -7.4
      vertex 0.441076 -4.47833 -7.4
      vertex 0.166629 -1.69181 -7.4
    endloop
  endfacet
  facet normal 0 0 1
    outer loop
      vertex 0.441076 -4.47833 -7.4
      vertex 0 -1.7 -7.4
      vertex 0 -4.5 -7.4
    endloop
  endfacet
  facet normal 0 0 1
    outer loop
      vertex 7.5 9.8 -7.5
      vertex 4.5 0 -7.5
      vertex 7.5 -9.8 -7.5
    endloop
  endfacet
  facet normal 0 0 1
    outer loop
      vertex 7.5 9.8 -7.5
      vertex 4.47833 0.441076 -7.5
      vertex 4.5 0 -7.5
    endloop
  endfacet
  facet normal 0 0 1
    outer loop
      vertex 7.5 9.8 -7.5
      vertex 4.41353 0.877906 -7.5
      vertex 4.47833 0.441076 -7.5
    endloop
  endfacet
  facet normal 0 0 1
    outer loop
      vertex 7.5 9.8 -7.5
      vertex 4.30623 1.30628 -7.5
      vertex 4.41353 0.877906 -7.5
    endloop
  endfacet
  facet normal 0 0 1
    outer loop
      vertex 7.5 9.8 -7.5
      vertex 4.15746 1.72207 -7.5
      vertex 4.30623 1.30628 -7.5
    endloop
  endfacet
  facet normal 0 0 1
    outer loop
      vertex 7.5 9.8 -7.5
      vertex 3.96865 2.12128 -7.5
      vertex 4.15746 1.72207 -7.5
    endloop
  endfacet
  facet normal 0 0 1
    outer loop
      vertex 7.5 9.8 -7.5
      vertex 3.74161 2.50007 -7.5
      vertex 3.96865 2.12128 -7.5
    endloop
  endfacet
  facet normal 0 0 1
    outer loop
      vertex 7.5 9.8 -7.5
      vertex 3.47855 2.85477 -7.5
      vertex 3.74161 2.50007 -7.5
    endloop
  endfacet
  facet normal 0 0 1
    outer loop
      vertex 7.5 9.8 -7.5
      vertex 3.18198 3.18198 -7.5
      vertex 3.47855 2.85477 -7.5
    endloop
  endfacet
  facet normal 0 0 1
    outer loop
      vertex 7.5 9.8 -7.5
      vertex 2.85477 3.47855 -7.5
      vertex 3.18198 3.18198 -7.5
    endloop
  endfacet
  facet normal 0 0 1
    outer loop
      vertex 7.5 9.8 -7.5
      vertex 2.50007 3.74161 -7.5
      vertex 2.85477 3.47855 -7.5
    endloop
  endfacet
  facet normal 0 0 1
    outer loop
      vertex 7.5 9.8 -7.5
      vertex 2.12128 3.96865 -7.5
      vertex 2.50007 3.74161 -7.5
    endloop
  endfacet
  facet normal 0 0 1
    outer loop
      vertex 7.5 9.8 -7.5
      vertex 1.72207 4.15746 -7.5
      vertex 2.12128 3.96865 -7.5
    endloop
  endfacet
  facet normal 0 0 1
    outer loop
      vertex 7.5 9.8 -7.5
      vertex 1.30628 4.30623 -7.5
      vertex 1.72207 4.15746 -7.5
    endloop
  endfacet
  facet normal 0 0 1
    outer loop
      vertex 7.5 9.8 -7.5
      vertex 0.877906 4.41353 -7.5
      vertex 1.30628 4.30623 -7.5
    endloop
  endfacet
  facet normal 0 0 1
    outer loop
      vertex 7.5 9.8 -7.5
      vertex 0.441076 4.47833 -7.5
      vertex 0.877906 4.41353 -7.5
    endloop
  endfacet
  facet normal 0 0 1
    outer loop
      vertex 7.5 9.8 -7.5
      vertex 0 4.5 -7.5
      vertex 0.441076 4.47833 -7.5
    endloop
  endfacet
  facet normal -0 0 1
    outer loop
      vertex -7.5 9.8 -7.5
      vertex 0 4.5 -7.5
      vertex 7.5 9.8 -7.5
    endloop
  endfacet
  facet normal 0 0 1
    outer loop
      vertex 0 4.5 -7.5
      vertex -7.5 9.8 -7.5
      vertex -0.441076 4.47833 -7.5
    endloop
  endfacet
  facet normal 0 0 1
    outer loop
      vertex -0.441076 4.47833 -7.5
      vertex -7.5 9.8 -7.5
      vertex -0.877906 4.41353 -7.5
    endloop
  endfacet
  facet normal 0 0 1
    outer loop
      vertex -0.877906 4.41353 -7.5
      vertex -7.5 9.8 -7.5
      vertex -1.30628 4.30623 -7.5
    endloop
  endfacet
  facet normal 0 0 1
    outer loop
      vertex -1.30628 4.30623 -7.5
      vertex -7.5 9.8 -7.5
      vertex -1.72207 4.15746 -7.5
    endloop
  endfacet
  facet normal 0 0 1
    outer loop
      vertex -1.72207 4.15746 -7.5
      vertex -7.5 9.8 -7.5
      vertex -2.12128 3.96865 -7.5
    endloop
  endfacet
  facet normal 0 0 1
    outer loop
      vertex -4.47833 0.441076 -7.5
      vertex -7.5 9.8 -7.5
      vertex -4.5 0 -7.5
    endloop
  endfacet
  facet normal 0 0 1
    outer loop
      vertex -4.41353 0.877906 -7.5
      vertex -7.5 9.8 -7.5
      vertex -4.47833 0.441076 -7.5
    endloop
  endfacet
  facet normal 0 0 1
    outer loop
      vertex -4.30623 1.30628 -7.5
      vertex -7.5 9.8 -7.5
      vertex -4.41353 0.877906 -7.5
    endloop
  endfacet
  facet normal 0 0 1
    outer loop
      vertex -4.15746 1.72207 -7.5
      vertex -7.5 9.8 -7.5
      vertex -4.30623 1.30628 -7.5
    endloop
  endfacet
  facet normal 0 0 1
    outer loop
      vertex -3.96865 2.12128 -7.5
      vertex -7.5 9.8 -7.5
      vertex -4.15746 1.72207 -7.5
    endloop
  endfacet
  facet normal 0 0 1
    outer loop
      vertex -3.74161 2.50007 -7.5
      vertex -7.5 9.8 -7.5
      vertex -3.96865 2.12128 -7.5
    endloop
  endfacet
  facet normal 0 0 1
    outer loop
      vertex -3.47855 2.85477 -7.5
      vertex -7.5 9.8 -7.5
      vertex -3.74161 2.50007 -7.5
    endloop
  endfacet
  facet normal 0 0 1
    outer loop
      vertex -3.18198 3.18198 -7.5
      vertex -7.5 9.8 -7.5
      vertex -3.47855 2.85477 -7.5
    endloop
  endfacet
  facet normal 0 0 1
    outer loop
      vertex -2.85477 3.47855 -7.5
      vertex -7.5 9.8 -7.5
      vertex -3.18198 3.18198 -7.5
    endloop
  endfacet
  facet normal 0 0 1
    outer loop
      vertex -2.50007 3.74161 -7.5
      vertex -7.5 9.8 -7.5
      vertex -2.85477 3.47855 -7.5
    endloop
  endfacet
  facet normal 0 0 1
    outer loop
      vertex -2.12128 3.96865 -7.5
      vertex -7.5 9.8 -7.5
      vertex -2.50007 3.74161 -7.5
    endloop
  endfacet
  facet normal -0 0 1
    outer loop
      vertex 4.47833 -0.441076 -7.5
      vertex 7.5 -9.8 -7.5
      vertex 4.5 0 -7.5
    endloop
  endfacet
  facet normal -0 0 1
    outer loop
      vertex 4.41353 -0.877906 -7.5
      vertex 7.5 -9.8 -7.5
      vertex 4.47833 -0.441076 -7.5
    endloop
  endfacet
  facet normal -0 0 1
    outer loop
      vertex 4.30623 -1.30628 -7.5
      vertex 7.5 -9.8 -7.5
      vertex 4.41353 -0.877906 -7.5
    endloop
  endfacet
  facet normal -0 0 1
    outer loop
      vertex 4.15746 -1.72207 -7.5
      vertex 7.5 -9.8 -7.5
      vertex 4.30623 -1.30628 -7.5
    endloop
  endfacet
  facet normal -0 0 1
    outer loop
      vertex 3.96865 -2.12128 -7.5
      vertex 7.5 -9.8 -7.5
      vertex 4.15746 -1.72207 -7.5
    endloop
  endfacet
  facet normal -0 0 1
    outer loop
      vertex 3.74161 -2.50007 -7.5
      vertex 7.5 -9.8 -7.5
      vertex 3.96865 -2.12128 -7.5
    endloop
  endfacet
  facet normal -0 0 1
    outer loop
      vertex 3.47855 -2.85477 -7.5
      vertex 7.5 -9.8 -7.5
      vertex 3.74161 -2.50007 -7.5
    endloop
  endfacet
  facet normal -0 0 1
    outer loop
      vertex 3.18198 -3.18198 -7.5
      vertex 7.5 -9.8 -7.5
      vertex 3.47855 -2.85477 -7.5
    endloop
  endfacet
  facet normal -0 0 1
    outer loop
      vertex 2.85477 -3.47855 -7.5
      vertex 7.5 -9.8 -7.5
      vertex 3.18198 -3.18198 -7.5
    endloop
  endfacet
  facet normal -0 0 1
    outer loop
      vertex 2.50007 -3.74161 -7.5
      vertex 7.5 -9.8 -7.5
      vertex 2.85477 -3.47855 -7.5
    endloop
  endfacet
  facet normal -0 0 1
    outer loop
      vertex 2.12128 -3.96865 -7.5
      vertex 7.5 -9.8 -7.5
      vertex 2.50007 -3.74161 -7.5
    endloop
  endfacet
  facet normal -0 0 1
    outer loop
      vertex 1.72207 -4.15746 -7.5
      vertex 7.5 -9.8 -7.5
      vertex 2.12128 -3.96865 -7.5
    endloop
  endfacet
  facet normal -0 0 1
    outer loop
      vertex 1.30628 -4.30623 -7.5
      vertex 7.5 -9.8 -7.5
      vertex 1.72207 -4.15746 -7.5
    endloop
  endfacet
  facet normal -0 0 1
    outer loop
      vertex 0.877906 -4.41353 -7.5
      vertex 7.5 -9.8 -7.5
      vertex 1.30628 -4.30623 -7.5
    endloop
  endfacet
  facet normal -0 0 1
    outer loop
      vertex 0.441076 -4.47833 -7.5
      vertex 7.5 -9.8 -7.5
      vertex 0.877906 -4.41353 -7.5
    endloop
  endfacet
  facet normal -0 0 1
    outer loop
      vertex 0 -4.5 -7.5
      vertex 7.5 -9.8 -7.5
      vertex 0.441076 -4.47833 -7.5
    endloop
  endfacet
  facet normal 0 0 1
    outer loop
      vertex -7.5 -9.8 -7.5
      vertex 0 -4.5 -7.5
      vertex -0.441076 -4.47833 -7.5
    endloop
  endfacet
  facet normal 0 0 1
    outer loop
      vertex -7.5 -9.8 -7.5
      vertex -0.441076 -4.47833 -7.5
      vertex -0.877906 -4.41353 -7.5
    endloop
  endfacet
  facet normal 0 0 1
    outer loop
      vertex -7.5 -9.8 -7.5
      vertex -0.877906 -4.41353 -7.5
      vertex -1.30628 -4.30623 -7.5
    endloop
  endfacet
  facet normal 0 0 1
    outer loop
      vertex -7.5 -9.8 -7.5
      vertex -1.30628 -4.30623 -7.5
      vertex -1.72207 -4.15746 -7.5
    endloop
  endfacet
  facet normal 0 0 1
    outer loop
      vertex -7.5 -9.8 -7.5
      vertex -1.72207 -4.15746 -7.5
      vertex -2.12128 -3.96865 -7.5
    endloop
  endfacet
  facet normal 0 0 1
    outer loop
      vertex -7.5 -9.8 -7.5
      vertex -2.12128 -3.96865 -7.5
      vertex -2.50007 -3.74161 -7.5
    endloop
  endfacet
  facet normal 0 0 1
    outer loop
      vertex -7.5 -9.8 -7.5
      vertex -4.5 0 -7.5
      vertex -7.5 9.8 -7.5
    endloop
  endfacet
  facet normal 0 0 1
    outer loop
      vertex -4.5 0 -7.5
      vertex -7.5 -9.8 -7.5
      vertex -4.47833 -0.441076 -7.5
    endloop
  endfacet
  facet normal 0 0 1
    outer loop
      vertex -4.47833 -0.441076 -7.5
      vertex -7.5 -9.8 -7.5
      vertex -4.41353 -0.877906 -7.5
    endloop
  endfacet
  facet normal 0 0 1
    outer loop
      vertex 0 -4.5 -7.5
      vertex -7.5 -9.8 -7.5
      vertex 7.5 -9.8 -7.5
    endloop
  endfacet
  facet normal 0 0 1
    outer loop
      vertex -2.85477 -3.47855 -7.5
      vertex -7.5 -9.8 -7.5
      vertex -2.50007 -3.74161 -7.5
    endloop
  endfacet
  facet normal 0 0 1
    outer loop
      vertex -3.18198 -3.18198 -7.5
      vertex -7.5 -9.8 -7.5
      vertex -2.85477 -3.47855 -7.5
    endloop
  endfacet
  facet normal 0 0 1
    outer loop
      vertex -3.47855 -2.85477 -7.5
      vertex -7.5 -9.8 -7.5
      vertex -3.18198 -3.18198 -7.5
    endloop
  endfacet
  facet normal 0 0 1
    outer loop
      vertex -3.74161 -2.50007 -7.5
      vertex -7.5 -9.8 -7.5
      vertex -3.47855 -2.85477 -7.5
    endloop
  endfacet
  facet normal 0 0 1
    outer loop
      vertex -3.96865 -2.12128 -7.5
      vertex -7.5 -9.8 -7.5
      vertex -3.74161 -2.50007 -7.5
    endloop
  endfacet
  facet normal 0 0 1
    outer loop
      vertex -4.15746 -1.72207 -7.5
      vertex -7.5 -9.8 -7.5
      vertex -3.96865 -2.12128 -7.5
    endloop
  endfacet
  facet normal 0 0 1
    outer loop
      vertex -4.30623 -1.30628 -7.5
      vertex -7.5 -9.8 -7.5
      vertex -4.15746 -1.72207 -7.5
    endloop
  endfacet
  facet normal 0 0 1
    outer loop
      vertex -4.41353 -0.877906 -7.5
      vertex -7.5 -9.8 -7.5
      vertex -4.30623 -1.30628 -7.5
    endloop
  endfacet
  facet normal -0.67158 0.740932 0
    outer loop
      vertex 1.20208 -1.20208 -10
      vertex 1.07847 -1.31412 -7.4
      vertex 1.20208 -1.20208 -7.4
    endloop
  endfacet
  facet normal -0.67158 0.740932 0
    outer loop
      vertex 1.07847 -1.31412 -7.4
      vertex 1.20208 -1.20208 -10
      vertex 1.07847 -1.31412 -10
    endloop
  endfacet
  facet normal -0.989176 -0.146736 0
    outer loop
      vertex 1.69181 0.166629 -10
      vertex 1.66733 0.331653 -0.200001
      vertex 1.66733 0.331653 -10
    endloop
  endfacet
  facet normal -0.989176 -0.146736 0
    outer loop
      vertex 1.66733 0.331653 -0.200001
      vertex 1.69181 0.166629 -10
      vertex 1.69181 0.166629 -0.200001
    endloop
  endfacet
  facet normal -0.998794 -0.0490918 -0
    outer loop
      vertex 1.7 0 -7.4
      vertex 1.69181 0.166629 -10
      vertex 1.7 0 -10
    endloop
  endfacet
  facet normal -0.998794 -0.0490918 0
    outer loop
      vertex 1.69181 0.166629 -10
      vertex 1.7 0 -7.4
      vertex 1.69181 0.166629 -0.200001
    endloop
  endfacet
  facet normal -0.998794 -0.0490918 0
    outer loop
      vertex 1.69181 0.166629 -0.200001
      vertex 1.7 0 -7.4
      vertex 1.7 0 -0.200001
    endloop
  endfacet
  facet normal -0.970041 -0.242943 0
    outer loop
      vertex 1.66733 0.331653 -10
      vertex 1.6268 0.493484 -0.200001
      vertex 1.6268 0.493484 -10
    endloop
  endfacet
  facet normal -0.970041 -0.242943 0
    outer loop
      vertex 1.6268 0.493484 -0.200001
      vertex 1.66733 0.331653 -10
      vertex 1.66733 0.331653 -0.200001
    endloop
  endfacet
  facet normal -0.42751 0.904011 0
    outer loop
      vertex 0.801374 -1.49927 -10
      vertex 0.650561 -1.57059 -7.4
      vertex 0.801374 -1.49927 -7.4
    endloop
  endfacet
  facet normal -0.42751 0.904011 0
    outer loop
      vertex 0.650561 -1.57059 -7.4
      vertex 0.801374 -1.49927 -10
      vertex 0.650561 -1.57059 -10
    endloop
  endfacet
  facet normal 0.0490918 -0.998794 0
    outer loop
      vertex -0.166629 1.69181 -10
      vertex 0 1.7 -7.4
      vertex -0.166629 1.69181 -7.4
    endloop
  endfacet
  facet normal 0.0490918 -0.998794 0
    outer loop
      vertex 0 1.7 -7.4
      vertex -0.166629 1.69181 -10
      vertex 0 1.7 -10
    endloop
  endfacet
  facet normal 0.42751 -0.904011 0
    outer loop
      vertex -0.801374 1.49927 -10
      vertex -0.650561 1.57059 -7.4
      vertex -0.801374 1.49927 -7.4
    endloop
  endfacet
  facet normal 0.42751 -0.904011 0
    outer loop
      vertex -0.650561 1.57059 -7.4
      vertex -0.801374 1.49927 -10
      vertex -0.650561 1.57059 -10
    endloop
  endfacet
  facet normal -0.740932 -0.67158 0
    outer loop
      vertex 1.31412 1.07847 -10
      vertex 1.20208 1.20208 -0.200001
      vertex 1.20208 1.20208 -10
    endloop
  endfacet
  facet normal -0.740932 -0.67158 0
    outer loop
      vertex 1.20208 1.20208 -0.200001
      vertex 1.31412 1.07847 -10
      vertex 1.31412 1.07847 -0.200001
    endloop
  endfacet
  facet normal 0.146736 0.989176 -0
    outer loop
      vertex -0.166629 -1.69181 -10
      vertex -0.331653 -1.66733 -0.200001
      vertex -0.166629 -1.69181 -0.200001
    endloop
  endfacet
  facet normal 0.146736 0.989176 0
    outer loop
      vertex -0.331653 -1.66733 -0.200001
      vertex -0.166629 -1.69181 -10
      vertex -0.331653 -1.66733 -10
    endloop
  endfacet
  facet normal -0.42751 -0.904011 0
    outer loop
      vertex 0.650561 1.57059 -10
      vertex 0.801374 1.49927 -0.200001
      vertex 0.650561 1.57059 -0.200001
    endloop
  endfacet
  facet normal -0.42751 -0.904011 -0
    outer loop
      vertex 0.801374 1.49927 -0.200001
      vertex 0.650561 1.57059 -10
      vertex 0.801374 1.49927 -10
    endloop
  endfacet
  facet normal 0.146736 -0.989176 0
    outer loop
      vertex -0.331653 1.66733 -10
      vertex -0.166629 1.69181 -7.4
      vertex -0.331653 1.66733 -7.4
    endloop
  endfacet
  facet normal 0.146736 -0.989176 0
    outer loop
      vertex -0.166629 1.69181 -7.4
      vertex -0.331653 1.66733 -10
      vertex -0.166629 1.69181 -10
    endloop
  endfacet
  facet normal -0.242943 0.970041 0
    outer loop
      vertex 0.493484 -1.6268 -10
      vertex 0.331653 -1.66733 -7.4
      vertex 0.493484 -1.6268 -7.4
    endloop
  endfacet
  facet normal -0.242943 0.970041 0
    outer loop
      vertex 0.331653 -1.66733 -7.4
      vertex 0.493484 -1.6268 -10
      vertex 0.331653 -1.66733 -10
    endloop
  endfacet
  facet normal 0.595689 -0.803215 0
    outer loop
      vertex -1.07847 1.31412 -10
      vertex -0.944468 1.4135 -7.4
      vertex -1.07847 1.31412 -7.4
    endloop
  endfacet
  facet normal 0.595689 -0.803215 0
    outer loop
      vertex -0.944468 1.4135 -7.4
      vertex -1.07847 1.31412 -10
      vertex -0.944468 1.4135 -10
    endloop
  endfacet
  facet normal 0.904011 -0.42751 0
    outer loop
      vertex -1.57059 0.650561 -7.4
      vertex -1.49927 0.801374 -10
      vertex -1.49927 0.801374 -7.4
    endloop
  endfacet
  facet normal 0.904011 -0.42751 0
    outer loop
      vertex -1.49927 0.801374 -10
      vertex -1.57059 0.650561 -7.4
      vertex -1.57059 0.650561 -10
    endloop
  endfacet
  facet normal 0.42751 0.904011 -0
    outer loop
      vertex -0.650561 -1.57059 -10
      vertex -0.801374 -1.49927 -0.200001
      vertex -0.650561 -1.57059 -0.200001
    endloop
  endfacet
  facet normal 0.42751 0.904011 0
    outer loop
      vertex -0.801374 -1.49927 -0.200001
      vertex -0.650561 -1.57059 -10
      vertex -0.801374 -1.49927 -10
    endloop
  endfacet
  facet normal -0.336927 0.941531 0
    outer loop
      vertex 0.650561 -1.57059 -10
      vertex 0.493484 -1.6268 -7.4
      vertex 0.650561 -1.57059 -7.4
    endloop
  endfacet
  facet normal -0.336927 0.941531 0
    outer loop
      vertex 0.493484 -1.6268 -7.4
      vertex 0.650561 -1.57059 -10
      vertex 0.493484 -1.6268 -10
    endloop
  endfacet
  facet normal 0.595689 0.803215 -0
    outer loop
      vertex -0.944468 -1.4135 -10
      vertex -1.07847 -1.31412 -0.200001
      vertex -0.944468 -1.4135 -0.200001
    endloop
  endfacet
  facet normal 0.595689 0.803215 0
    outer loop
      vertex -1.07847 -1.31412 -0.200001
      vertex -0.944468 -1.4135 -10
      vertex -1.07847 -1.31412 -10
    endloop
  endfacet
  facet normal 0.904011 0.42751 0
    outer loop
      vertex -1.49927 -0.801374 -0.200001
      vertex -1.57059 -0.650561 -10
      vertex -1.57059 -0.650561 -0.200001
    endloop
  endfacet
  facet normal 0.904011 0.42751 0
    outer loop
      vertex -1.57059 -0.650561 -10
      vertex -1.49927 -0.801374 -0.200001
      vertex -1.49927 -0.801374 -10
    endloop
  endfacet
  facet normal -0.514115 -0.857721 0
    outer loop
      vertex 0.801374 1.49927 -10
      vertex 0.944468 1.4135 -0.200001
      vertex 0.801374 1.49927 -0.200001
    endloop
  endfacet
  facet normal -0.514115 -0.857721 -0
    outer loop
      vertex 0.944468 1.4135 -0.200001
      vertex 0.801374 1.49927 -10
      vertex 0.944468 1.4135 -10
    endloop
  endfacet
  facet normal 0.998794 0.0490918 0
    outer loop
      vertex -1.69181 -0.166629 -0.200001
      vertex -1.7 0 -7.4
      vertex -1.7 0 -0.200001
    endloop
  endfacet
  facet normal 0.998794 0.0490918 -0
    outer loop
      vertex -1.69181 -0.166629 -10
      vertex -1.7 0 -7.4
      vertex -1.69181 -0.166629 -0.200001
    endloop
  endfacet
  facet normal 0.998794 0.0490918 0
    outer loop
      vertex -1.7 0 -7.4
      vertex -1.69181 -0.166629 -10
      vertex -1.7 0 -10
    endloop
  endfacet
  facet normal -0.595689 -0.803215 0
    outer loop
      vertex 0.944468 1.4135 -10
      vertex 1.07847 1.31412 -0.200001
      vertex 0.944468 1.4135 -0.200001
    endloop
  endfacet
  facet normal -0.595689 -0.803215 -0
    outer loop
      vertex 1.07847 1.31412 -0.200001
      vertex 0.944468 1.4135 -10
      vertex 1.07847 1.31412 -10
    endloop
  endfacet
  facet normal -0.970041 0.242943 0
    outer loop
      vertex 1.6268 -0.493484 -10
      vertex 1.66733 -0.331653 -7.4
      vertex 1.66733 -0.331653 -10
    endloop
  endfacet
  facet normal -0.970041 0.242943 0
    outer loop
      vertex 1.66733 -0.331653 -7.4
      vertex 1.6268 -0.493484 -10
      vertex 1.6268 -0.493484 -7.4
    endloop
  endfacet
  facet normal 0.941531 0.336927 0
    outer loop
      vertex -1.57059 -0.650561 -0.200001
      vertex -1.6268 -0.493484 -10
      vertex -1.6268 -0.493484 -0.200001
    endloop
  endfacet
  facet normal 0.941531 0.336927 0
    outer loop
      vertex -1.6268 -0.493484 -10
      vertex -1.57059 -0.650561 -0.200001
      vertex -1.57059 -0.650561 -10
    endloop
  endfacet
  facet normal -0.242943 -0.970041 0
    outer loop
      vertex 0.331653 1.66733 -10
      vertex 0.493484 1.6268 -0.200001
      vertex 0.331653 1.66733 -0.200001
    endloop
  endfacet
  facet normal -0.242943 -0.970041 -0
    outer loop
      vertex 0.493484 1.6268 -0.200001
      vertex 0.331653 1.66733 -10
      vertex 0.493484 1.6268 -10
    endloop
  endfacet
  facet normal 0.740932 -0.67158 0
    outer loop
      vertex -1.31412 1.07847 -7.4
      vertex -1.20208 1.20208 -10
      vertex -1.20208 1.20208 -7.4
    endloop
  endfacet
  facet normal 0.740932 -0.67158 0
    outer loop
      vertex -1.20208 1.20208 -10
      vertex -1.31412 1.07847 -7.4
      vertex -1.31412 1.07847 -10
    endloop
  endfacet
  facet normal -0.0490918 0.998794 0
    outer loop
      vertex 0.166629 -1.69181 -10
      vertex 0 -1.7 -7.4
      vertex 0.166629 -1.69181 -7.4
    endloop
  endfacet
  facet normal -0.0490918 0.998794 0
    outer loop
      vertex 0 -1.7 -7.4
      vertex 0.166629 -1.69181 -10
      vertex 0 -1.7 -10
    endloop
  endfacet
  facet normal -0.803215 -0.595689 0
    outer loop
      vertex 1.4135 0.944468 -10
      vertex 1.31412 1.07847 -0.200001
      vertex 1.31412 1.07847 -10
    endloop
  endfacet
  facet normal -0.803215 -0.595689 0
    outer loop
      vertex 1.31412 1.07847 -0.200001
      vertex 1.4135 0.944468 -10
      vertex 1.4135 0.944468 -0.200001
    endloop
  endfacet
  facet normal 0.970041 0.242943 0
    outer loop
      vertex -1.6268 -0.493484 -0.200001
      vertex -1.66733 -0.331653 -10
      vertex -1.66733 -0.331653 -0.200001
    endloop
  endfacet
  facet normal 0.970041 0.242943 0
    outer loop
      vertex -1.66733 -0.331653 -10
      vertex -1.6268 -0.493484 -0.200001
      vertex -1.6268 -0.493484 -10
    endloop
  endfacet
  facet normal -0.989176 0.146736 0
    outer loop
      vertex 1.66733 -0.331653 -10
      vertex 1.69181 -0.166629 -7.4
      vertex 1.69181 -0.166629 -10
    endloop
  endfacet
  facet normal -0.989176 0.146736 0
    outer loop
      vertex 1.69181 -0.166629 -7.4
      vertex 1.66733 -0.331653 -10
      vertex 1.66733 -0.331653 -7.4
    endloop
  endfacet
  facet normal -0.514115 0.857721 0
    outer loop
      vertex 0.944468 -1.4135 -10
      vertex 0.801374 -1.49927 -7.4
      vertex 0.944468 -1.4135 -7.4
    endloop
  endfacet
  facet normal -0.514115 0.857721 0
    outer loop
      vertex 0.801374 -1.49927 -7.4
      vertex 0.944468 -1.4135 -10
      vertex 0.801374 -1.49927 -10
    endloop
  endfacet
  facet normal 0.941531 -0.336927 0
    outer loop
      vertex -1.6268 0.493484 -7.4
      vertex -1.57059 0.650561 -10
      vertex -1.57059 0.650561 -7.4
    endloop
  endfacet
  facet normal 0.941531 -0.336927 0
    outer loop
      vertex -1.57059 0.650561 -10
      vertex -1.6268 0.493484 -7.4
      vertex -1.6268 0.493484 -10
    endloop
  endfacet
  facet normal -0.67158 -0.740932 0
    outer loop
      vertex 1.07847 1.31412 -10
      vertex 1.20208 1.20208 -0.200001
      vertex 1.07847 1.31412 -0.200001
    endloop
  endfacet
  facet normal -0.67158 -0.740932 -0
    outer loop
      vertex 1.20208 1.20208 -0.200001
      vertex 1.07847 1.31412 -10
      vertex 1.20208 1.20208 -10
    endloop
  endfacet
  facet normal 0.989176 -0.146736 0
    outer loop
      vertex -1.69181 0.166629 -7.4
      vertex -1.66733 0.331653 -10
      vertex -1.66733 0.331653 -7.4
    endloop
  endfacet
  facet normal 0.989176 -0.146736 0
    outer loop
      vertex -1.66733 0.331653 -10
      vertex -1.69181 0.166629 -7.4
      vertex -1.69181 0.166629 -10
    endloop
  endfacet
  facet normal -0.904011 0.42751 0
    outer loop
      vertex 1.49927 -0.801374 -10
      vertex 1.57059 -0.650561 -7.4
      vertex 1.57059 -0.650561 -10
    endloop
  endfacet
  facet normal -0.904011 0.42751 0
    outer loop
      vertex 1.57059 -0.650561 -7.4
      vertex 1.49927 -0.801374 -10
      vertex 1.49927 -0.801374 -7.4
    endloop
  endfacet
  facet normal -0.998794 0.0490918 0
    outer loop
      vertex 1.69181 -0.166629 -10
      vertex 1.7 0 -7.4
      vertex 1.7 0 -10
    endloop
  endfacet
  facet normal -0.998794 0.0490918 0
    outer loop
      vertex 1.7 0 -7.4
      vertex 1.69181 -0.166629 -10
      vertex 1.69181 -0.166629 -7.4
    endloop
  endfacet
  facet normal -0.146736 0.989176 0
    outer loop
      vertex 0.331653 -1.66733 -10
      vertex 0.166629 -1.69181 -7.4
      vertex 0.331653 -1.66733 -7.4
    endloop
  endfacet
  facet normal -0.146736 0.989176 0
    outer loop
      vertex 0.166629 -1.69181 -7.4
      vertex 0.331653 -1.66733 -10
      vertex 0.166629 -1.69181 -10
    endloop
  endfacet
  facet normal -0.941531 -0.336927 0
    outer loop
      vertex 1.6268 0.493484 -10
      vertex 1.57059 0.650561 -0.200001
      vertex 1.57059 0.650561 -10
    endloop
  endfacet
  facet normal -0.941531 -0.336927 0
    outer loop
      vertex 1.57059 0.650561 -0.200001
      vertex 1.6268 0.493484 -10
      vertex 1.6268 0.493484 -0.200001
    endloop
  endfacet
  facet normal -0.803215 0.595689 0
    outer loop
      vertex 1.31412 -1.07847 -10
      vertex 1.4135 -0.944468 -7.4
      vertex 1.4135 -0.944468 -10
    endloop
  endfacet
  facet normal -0.803215 0.595689 0
    outer loop
      vertex 1.4135 -0.944468 -7.4
      vertex 1.31412 -1.07847 -10
      vertex 1.31412 -1.07847 -7.4
    endloop
  endfacet
  facet normal -0.857721 0.514115 0
    outer loop
      vertex 1.4135 -0.944468 -10
      vertex 1.49927 -0.801374 -7.4
      vertex 1.49927 -0.801374 -10
    endloop
  endfacet
  facet normal -0.857721 0.514115 0
    outer loop
      vertex 1.49927 -0.801374 -7.4
      vertex 1.4135 -0.944468 -10
      vertex 1.4135 -0.944468 -7.4
    endloop
  endfacet
  facet normal 0.242943 -0.970041 0
    outer loop
      vertex -0.493484 1.6268 -10
      vertex -0.331653 1.66733 -7.4
      vertex -0.493484 1.6268 -7.4
    endloop
  endfacet
  facet normal 0.242943 -0.970041 0
    outer loop
      vertex -0.331653 1.66733 -7.4
      vertex -0.493484 1.6268 -10
      vertex -0.331653 1.66733 -10
    endloop
  endfacet
  facet normal -0.941531 0.336927 0
    outer loop
      vertex 1.57059 -0.650561 -10
      vertex 1.6268 -0.493484 -7.4
      vertex 1.6268 -0.493484 -10
    endloop
  endfacet
  facet normal -0.941531 0.336927 0
    outer loop
      vertex 1.6268 -0.493484 -7.4
      vertex 1.57059 -0.650561 -10
      vertex 1.57059 -0.650561 -7.4
    endloop
  endfacet
  facet normal -0.0490918 -0.998794 0
    outer loop
      vertex 0 1.7 -7.4
      vertex 0.166629 1.69181 -0.200001
      vertex 0 1.7 -0.200001
    endloop
  endfacet
  facet normal -0.0490918 -0.998794 0
    outer loop
      vertex 0.166629 1.69181 -10
      vertex 0 1.7 -7.4
      vertex 0 1.7 -10
    endloop
  endfacet
  facet normal -0.0490918 -0.998794 0
    outer loop
      vertex 0 1.7 -7.4
      vertex 0.166629 1.69181 -10
      vertex 0.166629 1.69181 -0.200001
    endloop
  endfacet
  facet normal 0.514115 -0.857721 0
    outer loop
      vertex -0.944468 1.4135 -10
      vertex -0.801374 1.49927 -7.4
      vertex -0.944468 1.4135 -7.4
    endloop
  endfacet
  facet normal 0.514115 -0.857721 0
    outer loop
      vertex -0.801374 1.49927 -7.4
      vertex -0.944468 1.4135 -10
      vertex -0.801374 1.49927 -10
    endloop
  endfacet
  facet normal -0.904011 -0.42751 0
    outer loop
      vertex 1.57059 0.650561 -10
      vertex 1.49927 0.801374 -0.200001
      vertex 1.49927 0.801374 -10
    endloop
  endfacet
  facet normal -0.904011 -0.42751 0
    outer loop
      vertex 1.49927 0.801374 -0.200001
      vertex 1.57059 0.650561 -10
      vertex 1.57059 0.650561 -0.200001
    endloop
  endfacet
  facet normal -0.146736 -0.989176 0
    outer loop
      vertex 0.166629 1.69181 -10
      vertex 0.331653 1.66733 -0.200001
      vertex 0.166629 1.69181 -0.200001
    endloop
  endfacet
  facet normal -0.146736 -0.989176 -0
    outer loop
      vertex 0.331653 1.66733 -0.200001
      vertex 0.166629 1.69181 -10
      vertex 0.331653 1.66733 -10
    endloop
  endfacet
  facet normal 0.242943 0.970041 -0
    outer loop
      vertex -0.331653 -1.66733 -10
      vertex -0.493484 -1.6268 -0.200001
      vertex -0.331653 -1.66733 -0.200001
    endloop
  endfacet
  facet normal 0.242943 0.970041 0
    outer loop
      vertex -0.493484 -1.6268 -0.200001
      vertex -0.331653 -1.66733 -10
      vertex -0.493484 -1.6268 -10
    endloop
  endfacet
  facet normal 0.857721 0.514115 0
    outer loop
      vertex -1.4135 -0.944468 -0.200001
      vertex -1.49927 -0.801374 -10
      vertex -1.49927 -0.801374 -0.200001
    endloop
  endfacet
  facet normal 0.857721 0.514115 0
    outer loop
      vertex -1.49927 -0.801374 -10
      vertex -1.4135 -0.944468 -0.200001
      vertex -1.4135 -0.944468 -10
    endloop
  endfacet
  facet normal -0.857721 -0.514115 0
    outer loop
      vertex 1.49927 0.801374 -10
      vertex 1.4135 0.944468 -0.200001
      vertex 1.4135 0.944468 -10
    endloop
  endfacet
  facet normal -0.857721 -0.514115 0
    outer loop
      vertex 1.4135 0.944468 -0.200001
      vertex 1.49927 0.801374 -10
      vertex 1.49927 0.801374 -0.200001
    endloop
  endfacet
  facet normal 0.336927 -0.941531 0
    outer loop
      vertex -0.650561 1.57059 -10
      vertex -0.493484 1.6268 -7.4
      vertex -0.650561 1.57059 -7.4
    endloop
  endfacet
  facet normal 0.336927 -0.941531 0
    outer loop
      vertex -0.493484 1.6268 -7.4
      vertex -0.650561 1.57059 -10
      vertex -0.493484 1.6268 -10
    endloop
  endfacet
  facet normal 0.740932 0.67158 0
    outer loop
      vertex -1.20208 -1.20208 -0.200001
      vertex -1.31412 -1.07847 -10
      vertex -1.31412 -1.07847 -0.200001
    endloop
  endfacet
  facet normal 0.740932 0.67158 0
    outer loop
      vertex -1.31412 -1.07847 -10
      vertex -1.20208 -1.20208 -0.200001
      vertex -1.20208 -1.20208 -10
    endloop
  endfacet
  facet normal 0.67158 -0.740932 0
    outer loop
      vertex -1.20208 1.20208 -10
      vertex -1.07847 1.31412 -7.4
      vertex -1.20208 1.20208 -7.4
    endloop
  endfacet
  facet normal 0.67158 -0.740932 0
    outer loop
      vertex -1.07847 1.31412 -7.4
      vertex -1.20208 1.20208 -10
      vertex -1.07847 1.31412 -10
    endloop
  endfacet
  facet normal -0.336927 -0.941531 0
    outer loop
      vertex 0.493484 1.6268 -10
      vertex 0.650561 1.57059 -0.200001
      vertex 0.493484 1.6268 -0.200001
    endloop
  endfacet
  facet normal -0.336927 -0.941531 -0
    outer loop
      vertex 0.650561 1.57059 -0.200001
      vertex 0.493484 1.6268 -10
      vertex 0.650561 1.57059 -10
    endloop
  endfacet
  facet normal 0.514115 0.857721 -0
    outer loop
      vertex -0.801374 -1.49927 -10
      vertex -0.944468 -1.4135 -0.200001
      vertex -0.801374 -1.49927 -0.200001
    endloop
  endfacet
  facet normal 0.514115 0.857721 0
    outer loop
      vertex -0.944468 -1.4135 -0.200001
      vertex -0.801374 -1.49927 -10
      vertex -0.944468 -1.4135 -10
    endloop
  endfacet
  facet normal 0.970041 -0.242943 0
    outer loop
      vertex -1.66733 0.331653 -7.4
      vertex -1.6268 0.493484 -10
      vertex -1.6268 0.493484 -7.4
    endloop
  endfacet
  facet normal 0.970041 -0.242943 0
    outer loop
      vertex -1.6268 0.493484 -10
      vertex -1.66733 0.331653 -7.4
      vertex -1.66733 0.331653 -10
    endloop
  endfacet
  facet normal 0.803215 0.595689 0
    outer loop
      vertex -1.31412 -1.07847 -0.200001
      vertex -1.4135 -0.944468 -10
      vertex -1.4135 -0.944468 -0.200001
    endloop
  endfacet
  facet normal 0.803215 0.595689 0
    outer loop
      vertex -1.4135 -0.944468 -10
      vertex -1.31412 -1.07847 -0.200001
      vertex -1.31412 -1.07847 -10
    endloop
  endfacet
  facet normal 0.989176 0.146736 0
    outer loop
      vertex -1.66733 -0.331653 -0.200001
      vertex -1.69181 -0.166629 -10
      vertex -1.69181 -0.166629 -0.200001
    endloop
  endfacet
  facet normal 0.989176 0.146736 0
    outer loop
      vertex -1.69181 -0.166629 -10
      vertex -1.66733 -0.331653 -0.200001
      vertex -1.66733 -0.331653 -10
    endloop
  endfacet
  facet normal -0.595689 0.803215 0
    outer loop
      vertex 1.07847 -1.31412 -10
      vertex 0.944468 -1.4135 -7.4
      vertex 1.07847 -1.31412 -7.4
    endloop
  endfacet
  facet normal -0.595689 0.803215 0
    outer loop
      vertex 0.944468 -1.4135 -7.4
      vertex 1.07847 -1.31412 -10
      vertex 0.944468 -1.4135 -10
    endloop
  endfacet
  facet normal 0.67158 0.740932 -0
    outer loop
      vertex -1.07847 -1.31412 -10
      vertex -1.20208 -1.20208 -0.200001
      vertex -1.07847 -1.31412 -0.200001
    endloop
  endfacet
  facet normal 0.67158 0.740932 0
    outer loop
      vertex -1.20208 -1.20208 -0.200001
      vertex -1.07847 -1.31412 -10
      vertex -1.20208 -1.20208 -10
    endloop
  endfacet
  facet normal 0.803215 -0.595689 0
    outer loop
      vertex -1.4135 0.944468 -7.4
      vertex -1.31412 1.07847 -10
      vertex -1.31412 1.07847 -7.4
    endloop
  endfacet
  facet normal 0.803215 -0.595689 0
    outer loop
      vertex -1.31412 1.07847 -10
      vertex -1.4135 0.944468 -7.4
      vertex -1.4135 0.944468 -10
    endloop
  endfacet
  facet normal 0.857721 -0.514115 0
    outer loop
      vertex -1.49927 0.801374 -7.4
      vertex -1.4135 0.944468 -10
      vertex -1.4135 0.944468 -7.4
    endloop
  endfacet
  facet normal 0.857721 -0.514115 0
    outer loop
      vertex -1.4135 0.944468 -10
      vertex -1.49927 0.801374 -7.4
      vertex -1.49927 0.801374 -10
    endloop
  endfacet
  facet normal 0.0490918 0.998794 -0
    outer loop
      vertex 0 -1.7 -7.4
      vertex -0.166629 -1.69181 -0.200001
      vertex 0 -1.7 -0.200001
    endloop
  endfacet
  facet normal 0.0490918 0.998794 0
    outer loop
      vertex -0.166629 -1.69181 -10
      vertex 0 -1.7 -7.4
      vertex 0 -1.7 -10
    endloop
  endfacet
  facet normal 0.0490918 0.998794 0
    outer loop
      vertex 0 -1.7 -7.4
      vertex -0.166629 -1.69181 -10
      vertex -0.166629 -1.69181 -0.200001
    endloop
  endfacet
  facet normal 0.998794 -0.0490918 0
    outer loop
      vertex -1.7 0 -7.4
      vertex -1.69181 0.166629 -10
      vertex -1.69181 0.166629 -7.4
    endloop
  endfacet
  facet normal 0.998794 -0.0490918 0
    outer loop
      vertex -1.69181 0.166629 -10
      vertex -1.7 0 -7.4
      vertex -1.7 0 -10
    endloop
  endfacet
  facet normal 0.336927 0.941531 -0
    outer loop
      vertex -0.493484 -1.6268 -10
      vertex -0.650561 -1.57059 -0.200001
      vertex -0.493484 -1.6268 -0.200001
    endloop
  endfacet
  facet normal 0.336927 0.941531 0
    outer loop
      vertex -0.650561 -1.57059 -0.200001
      vertex -0.493484 -1.6268 -10
      vertex -0.650561 -1.57059 -10
    endloop
  endfacet
  facet normal -0.740932 0.67158 0
    outer loop
      vertex 1.20208 -1.20208 -10
      vertex 1.31412 -1.07847 -7.4
      vertex 1.31412 -1.07847 -10
    endloop
  endfacet
  facet normal -0.740932 0.67158 0
    outer loop
      vertex 1.31412 -1.07847 -7.4
      vertex 1.20208 -1.20208 -10
      vertex 1.20208 -1.20208 -7.4
    endloop
  endfacet
endsolid OpenSCAD_Model
